{"glyphs":{"0":{"ha":819,"x_min":90,"x_max":729,"o":"m 412 905 q 539 884 481 905 q 633 821 596 863 q 706 674 682 766 q 729 452 729 583 q 704 218 729 313 q 631 68 680 123 q 535 6 592 26 q 410 -14 478 -14 q 284 6 341 -14 q 189 68 227 26 q 90 451 90 179 q 111 663 90 573 q 186 822 134 764 q 281 884 223 863 q 412 905 339 905 m 412 816 q 319 800 360 816 q 256 754 279 784 q 209 623 222 709 q 199 448 199 561 q 209 269 199 332 q 258 135 222 179 q 319 91 279 106 q 409 75 359 75 q 500 91 460 75 q 562 136 539 106 q 610 271 596 182 q 619 455 619 336 q 610 624 619 564 q 566 752 598 709 q 504 799 544 783 q 412 816 463 816 z "},"1":{"ha":454,"x_min":33,"x_max":325,"o":"m 33 746 q 111 796 68 765 q 239 903 163 835 l 325 886 l 325 0 l 222 0 l 222 768 q 137 709 162 726 q 59 662 102 686 l 33 746 z "},"2":{"ha":722,"x_min":68,"x_max":640,"o":"m 90 669 q 88 696 88 682 q 105 772 88 735 q 153 836 121 809 q 244 886 190 869 q 366 903 299 903 q 490 881 435 903 q 578 819 545 859 q 633 646 633 755 q 613 542 633 588 q 557 459 593 496 q 493 405 528 430 q 404 345 458 380 q 391 338 399 343 q 308 279 342 305 q 250 227 275 253 q 208 168 224 199 q 180 97 191 136 l 640 97 l 640 0 l 68 0 q 98 143 76 82 q 155 252 119 203 q 227 328 186 294 q 327 404 267 363 l 404 458 q 468 511 442 485 q 507 568 493 538 q 522 642 522 599 q 516 713 522 684 q 492 764 509 743 q 440 800 473 787 q 363 813 406 813 q 281 803 319 813 q 215 772 242 793 q 165 661 165 731 q 165 644 165 649 l 90 669 z "},"3":{"ha":747,"x_min":74,"x_max":660,"o":"m 85 726 q 117 801 93 767 q 176 857 140 834 q 270 895 212 880 q 367 905 314 905 q 471 890 421 905 q 558 850 522 876 q 643 666 643 789 q 583 526 643 581 q 529 490 559 504 q 471 469 500 475 q 540 447 507 463 q 600 405 574 431 q 660 258 660 345 q 636 134 660 189 q 564 43 612 79 q 467 0 524 14 q 341 -15 410 -15 q 227 1 280 -15 q 130 51 167 18 q 88 110 102 75 q 76 186 74 145 l 161 218 q 171 156 161 184 q 200 111 181 128 q 260 80 224 88 q 342 71 295 71 q 496 123 454 71 q 521 178 514 146 q 528 256 528 210 q 488 374 528 333 q 384 420 454 407 q 323 426 356 425 q 245 428 290 428 l 245 513 l 323 513 q 458 546 408 513 q 515 661 515 584 q 506 734 515 705 q 475 784 496 764 q 429 809 456 800 q 368 817 401 817 q 287 810 322 817 q 226 784 252 802 q 190 748 205 770 q 168 699 175 726 l 85 726 z "},"4":{"ha":703,"x_min":41,"x_max":650,"o":"m 41 302 l 405 888 l 526 875 l 526 276 l 650 276 l 650 189 l 526 189 l 526 -1 l 422 -1 l 422 189 l 50 189 l 41 302 m 422 275 l 422 755 l 127 275 l 422 275 z "},"5":{"ha":745,"x_min":82,"x_max":672,"o":"m 99 424 l 105 500 l 111 588 l 118 680 l 123 767 l 128 838 l 132 884 l 600 884 l 600 787 l 216 787 l 195 509 q 226 529 206 519 q 269 549 245 540 q 385 570 327 570 q 595 505 523 570 q 672 285 672 434 q 585 55 672 132 q 487 1 544 19 q 362 -17 429 -17 q 243 -2 296 -17 q 153 39 191 13 q 82 136 102 76 l 147 195 q 172 153 159 170 q 224 104 195 122 q 284 81 249 90 q 361 73 319 73 q 513 121 463 73 q 564 279 564 171 q 554 375 564 336 q 518 437 543 414 q 370 483 473 483 q 255 455 309 483 q 215 429 232 444 q 189 399 197 414 l 99 424 z "},"6":{"ha":776,"x_min":87,"x_max":705,"o":"m 612 755 q 564 789 589 774 q 504 813 538 803 q 424 823 468 823 q 306 790 360 823 q 268 757 282 774 q 237 697 250 732 q 214 612 224 663 q 203 489 203 562 q 307 564 248 539 q 429 589 366 589 q 562 566 505 589 q 611 535 589 554 q 654 484 633 517 q 705 290 705 401 q 666 125 705 203 q 627 64 648 89 q 574 21 606 39 q 400 -22 501 -22 q 250 9 317 -22 q 192 49 217 25 q 144 119 167 73 q 105 231 119 168 q 87 406 87 309 q 104 608 87 522 q 141 738 119 684 q 195 830 164 795 q 251 872 220 854 q 325 905 283 890 q 420 918 368 918 q 564 888 496 918 q 616 859 593 874 l 659 831 l 612 755 m 401 67 q 525 99 477 67 q 559 131 546 112 q 575 160 569 141 q 588 210 582 179 q 593 290 593 243 q 568 423 593 370 q 544 457 557 444 q 511 479 530 469 q 415 500 467 500 q 288 459 346 500 q 238 410 259 438 q 204 347 216 381 q 235 157 204 229 q 267 109 249 125 q 340 74 290 86 q 401 67 364 67 z "},"7":{"ha":606,"x_min":50,"x_max":568,"o":"m 50 886 l 565 886 l 568 795 q 366 353 442 578 q 312 163 332 253 q 290 5 293 74 l 177 5 q 234 275 186 125 q 342 551 274 402 q 465 793 397 673 l 50 793 l 50 886 z "},"8":{"ha":771,"x_min":81,"x_max":689,"o":"m 471 481 q 689 228 689 405 q 600 34 689 96 q 503 -8 559 6 q 378 -22 446 -22 q 258 -8 313 -22 q 165 34 203 6 q 102 113 122 66 q 81 227 81 161 q 137 375 81 312 q 300 477 192 438 q 173 566 217 519 q 117 702 117 627 q 195 871 117 818 q 390 916 259 916 q 581 870 515 916 q 637 802 619 843 q 655 706 655 761 q 598 570 655 629 q 471 481 553 524 m 387 833 q 259 802 298 833 q 229 760 238 786 q 220 699 220 734 q 265 595 220 637 q 386 527 304 557 q 507 596 465 557 q 552 700 552 638 q 543 762 552 736 q 513 804 534 787 q 387 833 474 833 m 385 431 q 250 357 295 397 q 191 233 191 304 q 202 153 191 184 q 237 103 212 122 q 301 74 262 83 q 385 65 339 65 q 467 75 429 65 q 530 104 505 84 q 568 156 556 125 q 579 234 579 188 q 522 359 579 309 q 385 431 477 399 z "},"9":{"ha":777,"x_min":71,"x_max":688,"o":"m 164 141 q 213 108 186 121 q 273 84 239 94 q 352 73 306 73 q 471 104 418 73 q 512 139 496 119 q 541 193 528 158 q 572 408 572 279 q 469 332 528 357 q 347 307 410 307 q 220 330 275 307 q 169 360 192 342 q 124 412 145 379 q 87 491 102 444 q 71 606 71 542 q 108 775 71 699 q 146 832 124 808 q 201 874 168 856 q 376 918 278 918 q 529 886 458 918 q 579 855 557 873 q 623 804 606 834 q 654 736 640 774 q 684 591 675 676 q 688 490 688 549 q 672 279 688 369 q 635 148 659 203 q 583 62 612 90 q 526 22 557 39 q 452 -8 494 5 q 356 -22 409 -22 q 213 9 280 -22 q 160 38 184 23 l 132 56 q 125 60 129 58 q 117 65 121 62 l 164 141 m 374 829 q 251 793 299 829 q 217 758 230 779 q 188 681 198 739 q 182 607 182 650 q 208 476 182 528 q 232 441 218 454 q 265 418 245 428 q 361 396 307 396 q 488 438 431 396 q 538 487 517 458 q 572 550 559 515 q 542 743 572 677 q 517 784 530 771 q 480 808 503 797 q 374 829 434 829 z "},"\u0000":{"ha":0,"x_min":0,"x_max":0,"o":""},"\r":{"ha":367,"x_min":0,"x_max":0,"o":""}," ":{"ha":367,"x_min":0,"x_max":0,"o":""},"A":{"ha":898,"x_min":12,"x_max":884,"o":"m 12 0 l 381 977 l 517 977 l 884 0 l 765 0 l 673 249 l 224 249 l 132 0 l 12 0 m 640 340 l 450 901 l 256 340 l 640 340 z "},"Á":{"ha":898,"x_min":12,"x_max":884,"o":"m 12 0 l 381 977 l 517 977 l 884 0 l 765 0 l 673 249 l 224 249 l 132 0 l 12 0 m 640 340 l 450 901 l 256 340 l 640 340 m 372 1092 l 308 1114 l 470 1370 l 587 1320 l 372 1092 z "},"Â":{"ha":898,"x_min":12,"x_max":884,"o":"m 12 0 l 381 977 l 517 977 l 884 0 l 765 0 l 673 249 l 224 249 l 132 0 l 12 0 m 640 340 l 450 901 l 256 340 l 640 340 m 618 1061 l 519 1061 l 450 1249 l 376 1061 l 278 1061 l 399 1290 l 496 1290 l 618 1061 z "},"Ȁ":{"ha":898,"x_min":12,"x_max":884,"o":"m 12 0 l 381 977 l 517 977 l 884 0 l 765 0 l 673 249 l 224 249 l 132 0 l 12 0 m 640 340 l 450 901 l 256 340 l 640 340 m 214 1263 l 276 1332 l 465 1154 l 422 1101 l 214 1263 m 433 1263 l 496 1332 l 684 1154 l 642 1101 l 433 1263 z "},"Ä":{"ha":898,"x_min":12,"x_max":884,"o":"m 12 0 l 381 977 l 517 977 l 884 0 l 765 0 l 673 249 l 224 249 l 132 0 l 12 0 m 640 340 l 450 901 l 256 340 l 640 340 m 305 1268 q 357 1251 344 1268 q 369 1201 369 1236 q 356 1152 369 1166 q 305 1137 342 1137 q 257 1152 271 1137 q 243 1201 243 1168 q 256 1252 243 1236 q 305 1268 270 1268 m 589 1268 q 641 1251 627 1268 q 652 1201 652 1236 q 639 1152 652 1166 q 589 1137 626 1137 q 541 1152 555 1137 q 526 1201 526 1168 q 540 1252 526 1236 q 589 1268 553 1268 z "},"À":{"ha":898,"x_min":12,"x_max":884,"o":"m 12 0 l 381 977 l 517 977 l 884 0 l 765 0 l 673 249 l 224 249 l 132 0 l 12 0 m 640 340 l 450 901 l 256 340 l 640 340 m 426 1370 l 589 1114 l 526 1092 l 307 1320 l 426 1370 z "},"Ȃ":{"ha":898,"x_min":12,"x_max":884,"o":"m 12 0 l 381 977 l 517 977 l 884 0 l 765 0 l 673 249 l 224 249 l 132 0 l 12 0 m 640 340 l 450 901 l 256 340 l 640 340 m 215 1104 q 240 1186 220 1147 q 292 1254 260 1225 q 365 1299 324 1283 q 448 1315 405 1315 q 533 1299 492 1315 q 606 1254 574 1283 q 658 1186 637 1225 q 683 1104 678 1147 l 608 1104 q 552 1198 596 1161 q 504 1226 530 1216 q 448 1236 477 1236 q 393 1226 420 1236 q 345 1198 367 1216 q 309 1156 323 1180 q 288 1104 294 1132 l 215 1104 z "},"Å":{"ha":898,"x_min":12,"x_max":884,"o":"m 12 0 l 381 977 l 517 977 l 884 0 l 765 0 l 673 249 l 224 249 l 132 0 l 12 0 m 640 340 l 450 901 l 256 340 l 640 340 m 338 1184 q 370 1261 338 1231 q 449 1289 400 1289 q 492 1281 471 1289 q 527 1260 512 1274 q 557 1183 557 1230 q 526 1105 557 1135 q 448 1076 495 1076 q 370 1105 401 1076 q 338 1184 338 1135 m 392 1184 q 406 1141 392 1157 q 448 1126 420 1126 q 491 1141 476 1126 q 505 1183 505 1157 q 491 1224 505 1208 q 448 1240 476 1240 q 407 1225 421 1240 q 392 1184 392 1209 z "},"Ã":{"ha":898,"x_min":12,"x_max":884,"o":"m 12 0 l 381 977 l 517 977 l 884 0 l 765 0 l 673 249 l 224 249 l 132 0 l 12 0 m 640 340 l 450 901 l 256 340 l 640 340 m 264 1144 q 300 1243 264 1213 q 376 1269 328 1269 q 414 1261 394 1269 q 463 1240 435 1254 q 475 1234 469 1236 q 486 1228 481 1231 l 500 1221 q 526 1211 518 1211 q 552 1225 544 1211 q 562 1268 560 1240 l 637 1268 q 605 1170 637 1202 q 530 1143 578 1143 q 489 1149 509 1143 q 447 1170 469 1156 q 402 1196 414 1190 q 378 1202 389 1202 q 341 1144 341 1202 l 264 1144 z "},"Æ":{"ha":1247,"x_min":-12,"x_max":1210,"o":"m -12 0 l 454 977 l 1109 977 l 1101 883 l 657 883 l 711 557 l 1112 557 l 1119 465 l 724 465 l 786 94 l 1187 94 l 1210 0 l 680 0 l 638 250 l 233 250 l 113 0 l -12 0 m 546 881 l 523 881 l 273 344 l 629 344 l 546 881 z "},"B":{"ha":918,"x_min":130,"x_max":844,"o":"m 130 977 l 412 977 q 553 975 498 977 q 655 957 613 972 q 727 914 698 942 q 774 837 760 883 q 789 727 789 790 q 745 584 789 634 q 686 543 723 558 q 627 522 665 534 q 675 511 659 515 q 721 496 705 503 q 766 471 747 484 q 802 438 785 459 q 844 276 844 382 q 819 140 844 196 q 768 64 801 98 q 684 19 739 35 q 530 0 620 0 l 130 0 l 130 977 m 248 882 l 248 565 l 479 565 q 592 578 550 565 q 657 617 635 591 q 681 665 673 637 q 688 732 688 693 q 682 801 688 774 q 659 844 675 827 q 595 873 638 865 q 471 882 551 882 l 248 882 m 248 472 l 248 96 l 510 96 q 627 106 585 96 q 691 143 669 117 q 716 196 709 164 q 723 278 723 229 q 709 379 723 340 q 676 429 699 411 q 609 460 654 448 q 493 472 564 472 l 248 472 z "},"C":{"ha":953,"x_min":80,"x_max":892,"o":"m 892 229 q 846 109 877 160 q 800 55 824 74 q 770 35 792 49 q 629 -16 718 2 q 517 -26 581 -26 q 306 14 398 -26 q 201 80 242 40 q 154 141 176 103 q 117 229 133 179 q 80 474 80 338 q 119 744 80 631 q 190 874 147 825 q 236 916 208 895 q 302 955 264 937 q 518 998 399 998 q 720 962 631 998 q 775 934 752 949 q 808 909 798 920 q 850 851 832 885 q 888 743 876 803 l 789 692 q 755 792 776 752 q 711 847 734 833 l 692 859 q 597 890 657 879 q 520 897 564 897 q 368 869 433 897 q 290 821 321 850 q 232 715 254 787 q 202 484 202 620 q 229 258 202 353 q 277 159 248 194 q 367 100 308 123 q 517 75 434 75 q 663 99 598 75 q 705 119 687 109 q 732 140 723 130 l 745 154 q 780 224 762 176 q 797 282 791 252 l 892 229 z "},"Ç":{"ha":954,"x_min":81,"x_max":893,"o":"m 893 229 q 847 109 878 160 q 801 55 825 74 q 771 35 793 49 q 631 -16 720 2 q 519 -26 582 -26 l 504 -26 l 487 -81 q 566 -94 537 -81 q 609 -160 609 -113 q 601 -202 609 -182 q 578 -237 593 -222 q 494 -267 547 -267 q 412 -253 444 -267 q 368 -222 391 -244 l 389 -182 q 429 -204 407 -197 q 482 -210 451 -210 q 524 -199 513 -210 q 535 -168 535 -188 q 524 -135 535 -144 q 491 -125 513 -125 l 456 -125 l 422 -83 l 439 -22 q 307 14 369 -13 q 202 80 243 40 q 156 141 177 103 q 118 229 134 179 q 81 474 81 338 q 121 744 81 631 q 191 874 149 825 q 237 916 209 895 q 304 955 266 937 q 519 998 400 998 q 722 962 632 998 q 776 934 753 949 q 810 909 799 920 q 852 851 833 885 q 890 743 878 803 l 791 692 q 756 792 777 752 q 713 847 736 833 l 694 859 q 599 890 659 879 q 522 897 565 897 q 369 869 434 897 q 292 821 322 850 q 233 715 256 787 q 203 484 203 620 q 231 258 203 353 q 278 159 249 194 q 368 100 309 123 q 519 75 435 75 q 664 99 600 75 q 706 119 688 109 q 734 140 724 130 l 746 154 q 781 224 763 176 q 798 282 792 252 l 893 229 z "},"D":{"ha":978,"x_min":130,"x_max":898,"o":"m 130 0 l 130 977 l 448 977 q 662 939 568 977 q 768 876 723 915 q 853 754 823 827 q 898 493 898 648 q 852 217 898 327 q 765 95 818 138 q 661 36 724 60 q 452 0 566 0 l 130 0 m 248 880 l 248 98 l 450 98 q 620 127 549 98 q 700 180 673 148 q 749 275 730 216 q 777 490 777 361 q 751 701 777 613 q 705 797 733 761 q 622 851 678 829 q 437 880 546 880 l 248 880 z "},"Ð":{"ha":979,"x_min":43,"x_max":899,"o":"m 43 543 l 132 543 l 132 977 l 449 977 q 663 939 569 977 q 769 876 724 915 q 854 754 824 827 q 899 493 899 648 q 853 217 899 327 q 766 95 819 138 q 662 36 725 60 q 453 0 568 0 l 132 0 l 132 454 l 43 454 l 43 543 m 250 880 l 250 543 l 422 543 l 422 454 l 250 454 l 250 98 l 451 98 q 621 127 550 98 q 701 180 674 148 q 750 275 732 216 q 778 490 778 361 q 752 701 778 613 q 706 797 734 761 q 623 851 680 829 q 439 880 547 880 l 250 880 z "},"E":{"ha":789,"x_min":130,"x_max":715,"o":"m 130 0 l 130 977 l 713 977 l 699 881 l 248 881 l 248 559 l 662 559 l 662 465 l 248 465 l 248 97 l 700 97 l 715 0 l 130 0 z "},"É":{"ha":789,"x_min":130,"x_max":715,"o":"m 130 0 l 130 977 l 713 977 l 699 881 l 248 881 l 248 559 l 662 559 l 662 465 l 248 465 l 248 97 l 700 97 l 715 0 l 130 0 m 319 1092 l 255 1114 l 417 1370 l 534 1320 l 319 1092 z "},"Ê":{"ha":789,"x_min":130,"x_max":715,"o":"m 130 0 l 130 977 l 713 977 l 699 881 l 248 881 l 248 559 l 662 559 l 662 465 l 248 465 l 248 97 l 700 97 l 715 0 l 130 0 m 614 1061 l 515 1061 l 446 1249 l 372 1061 l 274 1061 l 395 1290 l 492 1290 l 614 1061 z "},"Ȅ":{"ha":789,"x_min":130,"x_max":715,"o":"m 130 0 l 130 977 l 713 977 l 699 881 l 248 881 l 248 559 l 662 559 l 662 465 l 248 465 l 248 97 l 700 97 l 715 0 l 130 0 m 159 1263 l 222 1332 l 411 1154 l 368 1101 l 159 1263 m 379 1263 l 441 1332 l 630 1154 l 587 1101 l 379 1263 z "},"Ë":{"ha":789,"x_min":130,"x_max":715,"o":"m 130 0 l 130 977 l 713 977 l 699 881 l 248 881 l 248 559 l 662 559 l 662 465 l 248 465 l 248 97 l 700 97 l 715 0 l 130 0 m 295 1268 q 347 1251 334 1268 q 359 1201 359 1236 q 346 1152 359 1166 q 295 1137 332 1137 q 247 1152 261 1137 q 233 1201 233 1168 q 246 1252 233 1236 q 295 1268 260 1268 m 578 1268 q 631 1251 617 1268 q 642 1201 642 1236 q 629 1152 642 1166 q 578 1137 616 1137 q 530 1152 545 1137 q 516 1201 516 1168 q 530 1252 516 1236 q 578 1268 543 1268 z "},"È":{"ha":789,"x_min":130,"x_max":715,"o":"m 130 0 l 130 977 l 713 977 l 699 881 l 248 881 l 248 559 l 662 559 l 662 465 l 248 465 l 248 97 l 700 97 l 715 0 l 130 0 m 373 1370 l 536 1114 l 473 1092 l 254 1320 l 373 1370 z "},"Ȇ":{"ha":789,"x_min":130,"x_max":715,"o":"m 130 0 l 130 977 l 713 977 l 699 881 l 248 881 l 248 559 l 662 559 l 662 465 l 248 465 l 248 97 l 700 97 l 715 0 l 130 0 m 161 1104 q 186 1186 165 1147 q 238 1254 206 1225 q 310 1299 270 1283 q 394 1315 351 1315 q 479 1299 438 1315 q 551 1254 519 1283 q 604 1186 583 1225 q 629 1104 624 1147 l 553 1104 q 498 1198 542 1161 q 449 1226 476 1216 q 394 1236 422 1236 q 339 1226 366 1236 q 291 1198 313 1216 q 254 1156 269 1180 q 234 1104 239 1132 l 161 1104 z "},"F":{"ha":730,"x_min":130,"x_max":692,"o":"m 130 0 l 130 977 l 692 977 l 671 878 l 248 878 l 248 555 l 620 555 l 620 456 l 248 456 l 248 0 l 130 0 z "},"G":{"ha":1005,"x_min":77,"x_max":911,"o":"m 911 0 l 827 0 l 808 80 q 697 7 755 33 q 521 -26 620 -26 q 309 15 401 -26 q 198 90 239 46 q 122 212 152 137 q 77 469 77 321 q 126 757 77 637 q 214 892 161 843 q 323 960 260 935 q 532 999 416 999 q 722 966 637 999 q 812 917 779 944 l 827 903 q 873 831 850 880 q 897 770 886 808 l 808 711 q 774 797 795 761 q 746 833 760 821 q 677 873 715 857 q 530 899 611 899 q 372 871 441 899 q 293 823 323 852 q 231 713 255 789 q 199 473 199 616 q 231 247 199 336 q 292 144 255 176 q 369 99 323 117 q 524 73 437 73 q 698 106 627 73 q 793 174 749 129 l 793 382 l 497 382 l 497 479 l 911 479 l 911 0 z "},"H":{"ha":1033,"x_min":130,"x_max":903,"o":"m 130 0 l 130 977 l 248 977 l 248 554 l 785 554 l 785 977 l 903 977 l 903 0 l 785 0 l 785 461 l 248 461 l 248 0 l 130 0 z "},"I":{"ha":472,"x_min":65,"x_max":410,"o":"m 69 909 l 65 977 l 410 977 l 405 909 l 301 909 l 301 68 l 406 68 l 402 0 l 70 0 l 66 68 l 183 68 l 183 909 l 69 909 z "},"Í":{"ha":472,"x_min":65,"x_max":410,"o":"m 69 909 l 65 977 l 410 977 l 405 909 l 301 909 l 301 68 l 406 68 l 402 0 l 70 0 l 66 68 l 183 68 l 183 909 l 69 909 m 163 1092 l 99 1114 l 261 1370 l 378 1320 l 163 1092 z "},"Î":{"ha":472,"x_min":65,"x_max":410,"o":"m 69 909 l 65 977 l 410 977 l 405 909 l 301 909 l 301 68 l 406 68 l 402 0 l 70 0 l 66 68 l 183 68 l 183 909 l 69 909 m 408 1061 l 309 1061 l 239 1249 l 166 1061 l 68 1061 l 189 1290 l 286 1290 l 408 1061 z "},"Ȉ":{"ha":472,"x_min":1,"x_max":472,"o":"m 69 909 l 65 977 l 410 977 l 405 909 l 301 909 l 301 68 l 406 68 l 402 0 l 70 0 l 66 68 l 183 68 l 183 909 l 69 909 m 1 1263 l 64 1332 l 253 1154 l 210 1101 l 1 1263 m 221 1263 l 283 1332 l 472 1154 l 429 1101 l 221 1263 z "},"Ï":{"ha":472,"x_min":41,"x_max":450,"o":"m 69 909 l 65 977 l 410 977 l 405 909 l 301 909 l 301 68 l 406 68 l 402 0 l 70 0 l 66 68 l 183 68 l 183 909 l 69 909 m 103 1268 q 155 1251 142 1268 q 167 1201 167 1236 q 154 1152 167 1166 q 103 1137 140 1137 q 55 1152 69 1137 q 41 1201 41 1168 q 54 1252 41 1236 q 103 1268 68 1268 m 387 1268 q 439 1251 425 1268 q 450 1201 450 1236 q 437 1152 450 1166 q 387 1137 424 1137 q 338 1152 353 1137 q 324 1201 324 1168 q 338 1252 324 1236 q 387 1268 351 1268 z "},"Ì":{"ha":472,"x_min":65,"x_max":410,"o":"m 69 909 l 65 977 l 410 977 l 405 909 l 301 909 l 301 68 l 406 68 l 402 0 l 70 0 l 66 68 l 183 68 l 183 909 l 69 909 m 216 1370 l 378 1114 l 315 1092 l 97 1320 l 216 1370 z "},"Ȋ":{"ha":472,"x_min":3,"x_max":471,"o":"m 69 909 l 65 977 l 410 977 l 405 909 l 301 909 l 301 68 l 406 68 l 402 0 l 70 0 l 66 68 l 183 68 l 183 909 l 69 909 m 3 1104 q 28 1186 7 1147 q 80 1254 48 1225 q 152 1299 112 1283 q 236 1315 193 1315 q 321 1299 280 1315 q 393 1254 361 1283 q 446 1186 425 1225 q 471 1104 466 1147 l 395 1104 q 340 1198 384 1161 q 291 1226 318 1216 q 236 1236 264 1236 q 181 1226 208 1236 q 133 1198 155 1216 q 96 1156 111 1180 q 76 1104 81 1132 l 3 1104 z "},"J":{"ha":553,"x_min":29,"x_max":431,"o":"m 313 977 l 431 977 l 431 225 q 410 72 431 130 q 363 3 395 28 q 304 -27 342 -14 q 215 -39 267 -39 q 137 -27 172 -39 q 77 5 102 -16 q 42 48 54 25 q 29 94 29 72 q 31 126 29 113 l 33 149 l 130 169 l 130 162 q 130 147 130 153 l 130 117 q 157 74 130 87 q 224 62 180 62 q 265 71 249 62 q 292 99 281 79 q 313 258 313 141 l 313 977 z "},"K":{"ha":863,"x_min":130,"x_max":848,"o":"m 130 0 l 130 977 l 248 977 l 248 492 l 374 591 l 687 977 l 831 977 l 481 556 l 848 0 l 715 0 l 387 513 l 248 403 l 248 0 l 130 0 z "},"L":{"ha":706,"x_min":130,"x_max":679,"o":"m 679 0 l 130 0 l 130 977 l 248 977 l 248 97 l 679 97 l 679 0 z "},"Ł":{"ha":705,"x_min":28,"x_max":649,"o":"m 649 0 l 133 0 l 133 382 l 69 347 l 28 421 l 133 480 l 133 977 l 251 977 l 251 546 l 408 635 l 452 562 l 251 449 l 251 97 l 649 97 l 649 0 z "},"M":{"ha":1181,"x_min":130,"x_max":1050,"o":"m 591 172 l 876 977 l 1050 977 l 1050 0 l 945 0 l 945 871 l 919 795 l 648 43 l 534 43 l 262 795 l 236 871 l 236 0 l 130 0 l 130 977 l 306 977 l 591 172 z "},"N":{"ha":1059,"x_min":130,"x_max":928,"o":"m 130 0 l 130 977 l 277 977 l 689 357 l 819 151 l 819 977 l 928 977 l 928 0 l 793 0 l 363 653 l 239 848 l 239 0 l 130 0 z "},"Ñ":{"ha":1059,"x_min":130,"x_max":928,"o":"m 130 0 l 130 977 l 277 977 l 689 357 l 819 151 l 819 977 l 928 977 l 928 0 l 793 0 l 363 653 l 239 848 l 239 0 l 130 0 m 342 1144 q 378 1243 342 1213 q 454 1269 406 1269 q 492 1261 472 1269 q 541 1240 513 1254 q 553 1234 547 1236 q 564 1228 559 1231 l 578 1221 q 604 1211 596 1211 q 630 1225 622 1211 q 640 1268 638 1240 l 715 1268 q 683 1170 715 1202 q 608 1143 656 1143 q 567 1149 587 1143 q 525 1170 547 1156 q 480 1196 492 1190 q 456 1202 467 1202 q 419 1144 419 1202 l 342 1144 z "},"O":{"ha":1045,"x_min":82,"x_max":963,"o":"m 82 493 q 119 757 82 650 q 186 878 144 830 q 298 956 231 926 q 524 998 393 998 q 749 955 651 998 q 860 878 816 925 q 927 757 902 830 q 963 494 963 652 q 920 200 963 316 q 838 77 889 121 q 724 10 793 38 q 522 -26 635 -26 q 296 17 391 -26 q 184 95 227 48 q 118 220 143 142 q 82 493 82 331 m 524 898 q 358 869 431 898 q 306 842 328 857 q 273 813 284 827 q 227 714 244 778 q 203 489 203 625 q 228 258 203 347 q 274 159 245 193 q 307 129 286 144 q 358 103 328 115 q 522 75 431 75 q 686 104 615 75 q 771 160 743 126 q 818 261 802 200 q 842 494 842 353 q 818 717 842 629 q 772 814 801 776 q 739 843 760 829 q 688 869 718 858 q 524 898 615 898 z "},"Ó":{"ha":1045,"x_min":82,"x_max":963,"o":"m 82 493 q 119 757 82 650 q 186 878 144 830 q 298 956 231 926 q 524 998 393 998 q 749 955 651 998 q 860 878 816 925 q 927 757 902 830 q 963 494 963 652 q 920 200 963 316 q 838 77 889 121 q 724 10 793 38 q 522 -26 635 -26 q 296 17 391 -26 q 184 95 227 48 q 118 220 143 142 q 82 493 82 331 m 524 898 q 358 869 431 898 q 306 842 328 857 q 273 813 284 827 q 227 714 244 778 q 203 489 203 625 q 228 258 203 347 q 274 159 245 193 q 307 129 286 144 q 358 103 328 115 q 522 75 431 75 q 686 104 615 75 q 771 160 743 126 q 818 261 802 200 q 842 494 842 353 q 818 717 842 629 q 772 814 801 776 q 739 843 760 829 q 688 869 718 858 q 524 898 615 898 m 446 1092 l 382 1114 l 545 1370 l 662 1320 l 446 1092 z "},"Ô":{"ha":1045,"x_min":82,"x_max":963,"o":"m 82 493 q 119 757 82 650 q 186 878 144 830 q 298 956 231 926 q 524 998 393 998 q 749 955 651 998 q 860 878 816 925 q 927 757 902 830 q 963 494 963 652 q 920 200 963 316 q 838 77 889 121 q 724 10 793 38 q 522 -26 635 -26 q 296 17 391 -26 q 184 95 227 48 q 118 220 143 142 q 82 493 82 331 m 524 898 q 358 869 431 898 q 306 842 328 857 q 273 813 284 827 q 227 714 244 778 q 203 489 203 625 q 228 258 203 347 q 274 159 245 193 q 307 129 286 144 q 358 103 328 115 q 522 75 431 75 q 686 104 615 75 q 771 160 743 126 q 818 261 802 200 q 842 494 842 353 q 818 717 842 629 q 772 814 801 776 q 739 843 760 829 q 688 869 718 858 q 524 898 615 898 m 692 1061 l 593 1061 l 524 1249 l 450 1061 l 352 1061 l 473 1290 l 570 1290 l 692 1061 z "},"Ȍ":{"ha":1045,"x_min":82,"x_max":963,"o":"m 82 493 q 119 757 82 650 q 186 878 144 830 q 298 956 231 926 q 524 998 393 998 q 749 955 651 998 q 860 878 816 925 q 927 757 902 830 q 963 494 963 652 q 920 200 963 316 q 838 77 889 121 q 724 10 793 38 q 522 -26 635 -26 q 296 17 391 -26 q 184 95 227 48 q 118 220 143 142 q 82 493 82 331 m 524 898 q 358 869 431 898 q 306 842 328 857 q 273 813 284 827 q 227 714 244 778 q 203 489 203 625 q 228 258 203 347 q 274 159 245 193 q 307 129 286 144 q 358 103 328 115 q 522 75 431 75 q 686 104 615 75 q 771 160 743 126 q 818 261 802 200 q 842 494 842 353 q 818 717 842 629 q 772 814 801 776 q 739 843 760 829 q 688 869 718 858 q 524 898 615 898 m 287 1263 l 349 1332 l 538 1154 l 495 1101 l 287 1263 m 507 1263 l 569 1332 l 758 1154 l 715 1101 l 507 1263 z "},"Ö":{"ha":1045,"x_min":82,"x_max":963,"o":"m 82 493 q 119 757 82 650 q 186 878 144 830 q 298 956 231 926 q 524 998 393 998 q 749 955 651 998 q 860 878 816 925 q 927 757 902 830 q 963 494 963 652 q 920 200 963 316 q 838 77 889 121 q 724 10 793 38 q 522 -26 635 -26 q 296 17 391 -26 q 184 95 227 48 q 118 220 143 142 q 82 493 82 331 m 524 898 q 358 869 431 898 q 306 842 328 857 q 273 813 284 827 q 227 714 244 778 q 203 489 203 625 q 228 258 203 347 q 274 159 245 193 q 307 129 286 144 q 358 103 328 115 q 522 75 431 75 q 686 104 615 75 q 771 160 743 126 q 818 261 802 200 q 842 494 842 353 q 818 717 842 629 q 772 814 801 776 q 739 843 760 829 q 688 869 718 858 q 524 898 615 898 m 380 1268 q 432 1251 418 1268 q 444 1201 444 1236 q 430 1152 444 1166 q 380 1137 417 1137 q 332 1152 346 1137 q 317 1201 317 1168 q 331 1252 317 1236 q 380 1268 345 1268 m 663 1268 q 715 1251 702 1268 q 727 1201 727 1236 q 714 1152 727 1166 q 663 1137 701 1137 q 615 1152 629 1137 q 601 1201 601 1168 q 614 1252 601 1236 q 663 1268 628 1268 z "},"Ò":{"ha":1045,"x_min":82,"x_max":963,"o":"m 82 493 q 119 757 82 650 q 186 878 144 830 q 298 956 231 926 q 524 998 393 998 q 749 955 651 998 q 860 878 816 925 q 927 757 902 830 q 963 494 963 652 q 920 200 963 316 q 838 77 889 121 q 724 10 793 38 q 522 -26 635 -26 q 296 17 391 -26 q 184 95 227 48 q 118 220 143 142 q 82 493 82 331 m 524 898 q 358 869 431 898 q 306 842 328 857 q 273 813 284 827 q 227 714 244 778 q 203 489 203 625 q 228 258 203 347 q 274 159 245 193 q 307 129 286 144 q 358 103 328 115 q 522 75 431 75 q 686 104 615 75 q 771 160 743 126 q 818 261 802 200 q 842 494 842 353 q 818 717 842 629 q 772 814 801 776 q 739 843 760 829 q 688 869 718 858 q 524 898 615 898 m 500 1370 l 663 1114 l 600 1092 l 381 1320 l 500 1370 z "},"Ȏ":{"ha":1045,"x_min":82,"x_max":963,"o":"m 82 493 q 119 757 82 650 q 186 878 144 830 q 298 956 231 926 q 524 998 393 998 q 749 955 651 998 q 860 878 816 925 q 927 757 902 830 q 963 494 963 652 q 920 200 963 316 q 838 77 889 121 q 724 10 793 38 q 522 -26 635 -26 q 296 17 391 -26 q 184 95 227 48 q 118 220 143 142 q 82 493 82 331 m 524 898 q 358 869 431 898 q 306 842 328 857 q 273 813 284 827 q 227 714 244 778 q 203 489 203 625 q 228 258 203 347 q 274 159 245 193 q 307 129 286 144 q 358 103 328 115 q 522 75 431 75 q 686 104 615 75 q 771 160 743 126 q 818 261 802 200 q 842 494 842 353 q 818 717 842 629 q 772 814 801 776 q 739 843 760 829 q 688 869 718 858 q 524 898 615 898 m 288 1104 q 313 1186 293 1147 q 366 1254 334 1225 q 438 1299 397 1283 q 522 1315 478 1315 q 606 1299 566 1315 q 679 1254 647 1283 q 731 1186 711 1225 q 756 1104 751 1147 l 681 1104 q 625 1198 669 1161 q 577 1226 604 1216 q 522 1236 550 1236 q 467 1226 493 1236 q 418 1198 440 1216 q 382 1156 397 1180 q 361 1104 367 1132 l 288 1104 z "},"Ø":{"ha":1044,"x_min":82,"x_max":963,"o":"m 927 757 q 963 494 963 652 q 920 200 963 316 q 838 77 889 121 q 724 10 793 38 q 522 -26 635 -26 q 452 -22 488 -26 l 431 -120 l 347 -104 l 369 -8 q 296 17 330 1 q 184 95 227 48 q 118 220 143 142 q 82 493 82 331 q 119 757 82 650 q 186 878 144 830 q 298 956 231 926 q 524 998 393 998 q 593 995 557 998 l 616 1095 l 701 1079 l 678 979 q 749 955 716 970 q 860 878 816 925 q 927 757 902 830 m 358 103 q 391 92 372 98 l 571 896 q 524 898 549 898 q 358 869 431 898 q 306 842 328 857 q 273 813 284 827 q 227 714 244 778 q 203 489 203 625 q 228 258 203 347 q 274 159 245 193 q 307 129 286 144 q 358 103 328 115 m 818 261 q 842 494 842 353 q 818 717 842 629 q 772 814 801 776 q 739 843 760 829 q 688 869 718 858 q 656 880 673 875 l 475 77 q 522 75 497 75 q 686 104 615 75 q 771 160 743 126 q 818 261 802 200 z "},"Õ":{"ha":1045,"x_min":82,"x_max":963,"o":"m 82 493 q 119 757 82 650 q 186 878 144 830 q 298 956 231 926 q 524 998 393 998 q 749 955 651 998 q 860 878 816 925 q 927 757 902 830 q 963 494 963 652 q 920 200 963 316 q 838 77 889 121 q 724 10 793 38 q 522 -26 635 -26 q 296 17 391 -26 q 184 95 227 48 q 118 220 143 142 q 82 493 82 331 m 524 898 q 358 869 431 898 q 306 842 328 857 q 273 813 284 827 q 227 714 244 778 q 203 489 203 625 q 228 258 203 347 q 274 159 245 193 q 307 129 286 144 q 358 103 328 115 q 522 75 431 75 q 686 104 615 75 q 771 160 743 126 q 818 261 802 200 q 842 494 842 353 q 818 717 842 629 q 772 814 801 776 q 739 843 760 829 q 688 869 718 858 q 524 898 615 898 m 331 1144 q 366 1243 331 1213 q 443 1269 395 1269 q 481 1261 460 1269 q 529 1240 501 1254 q 542 1234 536 1236 q 553 1228 548 1231 l 567 1221 q 592 1211 585 1211 q 618 1225 610 1211 q 628 1268 627 1240 l 704 1268 q 671 1170 704 1202 q 597 1143 644 1143 q 555 1149 575 1143 q 513 1170 536 1156 q 468 1196 481 1190 q 444 1202 456 1202 q 408 1144 408 1202 l 331 1144 z "},"Œ":{"ha":1390,"x_min":82,"x_max":1316,"o":"m 526 998 q 661 987 586 998 l 733 977 l 1315 977 l 1299 884 l 846 884 l 846 557 l 1263 557 l 1263 465 l 846 465 l 846 96 l 1300 96 l 1316 1 l 737 1 q 593 -23 664 -16 q 521 -28 557 -28 q 304 12 396 -28 q 199 79 245 37 q 122 204 151 122 q 82 488 82 316 q 119 756 82 648 q 186 879 144 831 q 298 957 227 925 q 526 998 393 998 m 732 879 q 606 895 643 891 q 552 897 578 897 q 369 873 447 897 q 316 850 338 863 q 283 823 294 837 q 231 722 250 785 q 204 491 204 636 q 231 249 204 337 q 283 148 250 186 q 367 98 313 116 q 546 73 441 73 q 665 83 594 73 q 732 94 713 90 l 732 879 z "},"P":{"ha":845,"x_min":130,"x_max":796,"o":"m 130 977 l 381 977 q 598 960 517 977 q 713 905 671 943 q 770 827 749 871 q 796 686 796 767 q 769 547 796 604 q 712 471 748 501 q 615 420 675 438 q 427 399 543 399 l 248 399 l 248 0 l 130 0 l 130 977 m 248 880 l 248 494 l 372 494 q 541 505 479 494 q 586 517 568 509 q 619 536 605 524 q 656 583 644 555 q 672 684 672 617 q 654 792 672 753 q 614 843 641 823 q 589 858 601 852 q 558 869 576 864 q 435 880 515 880 l 248 880 z "},"Þ":{"ha":844,"x_min":130,"x_max":795,"o":"m 130 977 l 248 977 l 248 835 l 380 835 q 597 817 517 835 q 713 762 671 801 q 769 684 748 729 q 795 544 795 625 q 768 404 795 462 q 711 328 747 359 q 614 278 675 296 q 426 256 542 256 l 248 256 l 248 0 l 130 0 l 130 977 m 248 737 l 248 351 l 372 351 q 540 362 479 351 q 586 374 567 367 q 618 393 604 382 q 655 439 643 413 q 671 542 671 475 q 654 650 671 610 q 613 701 640 681 q 588 715 600 709 q 557 726 576 722 q 435 737 514 737 l 248 737 z "},"Q":{"ha":1048,"x_min":82,"x_max":964,"o":"m 772 -178 q 706 -104 739 -145 q 640 -16 677 -70 q 586 -23 618 -20 q 524 -26 554 -26 q 287 20 385 -26 q 172 111 212 56 q 115 229 136 157 q 82 491 82 332 q 123 767 82 657 q 197 888 151 844 q 309 959 240 930 q 522 998 402 998 q 747 955 650 998 q 859 878 814 925 q 928 756 901 831 q 964 496 964 651 q 930 229 964 338 q 869 109 907 155 q 735 12 823 50 q 797 -68 769 -35 q 855 -130 825 -101 l 772 -178 m 555 262 q 615 188 584 229 q 646 146 625 175 l 678 99 q 765 151 735 119 q 815 249 795 184 q 843 494 843 343 q 819 716 843 629 q 772 813 802 774 q 688 869 744 846 q 524 897 615 897 q 358 869 431 897 q 307 842 328 857 q 274 812 286 827 q 228 713 245 777 q 204 489 204 625 q 226 268 204 358 q 267 160 243 195 q 346 104 289 124 q 560 77 422 77 l 571 77 q 582 77 578 77 q 468 223 524 161 l 555 262 z "},"R":{"ha":905,"x_min":130,"x_max":850,"o":"m 130 977 l 432 977 q 552 975 501 977 q 737 920 678 966 q 822 711 822 857 q 804 578 822 631 q 745 494 786 526 q 668 457 714 470 q 559 440 622 444 q 627 374 590 418 q 662 326 646 351 l 850 14 l 747 -28 l 659 121 q 508 361 562 285 q 454 429 477 405 l 248 429 l 248 0 l 130 0 l 130 977 m 667 572 q 694 626 687 593 q 701 710 701 659 q 692 792 701 760 q 659 844 682 825 q 586 873 633 866 q 456 881 539 881 l 248 881 l 248 526 l 436 526 l 481 526 q 522 526 509 526 q 610 538 575 528 q 667 572 644 549 z "},"Ȑ":{"ha":905,"x_min":130,"x_max":850,"o":"m 130 977 l 432 977 q 552 975 501 977 q 737 920 678 966 q 822 711 822 857 q 804 578 822 631 q 745 494 786 526 q 668 457 714 470 q 559 440 622 444 q 627 374 590 418 q 662 326 646 351 l 850 14 l 747 -28 l 659 121 q 508 361 562 285 q 454 429 477 405 l 248 429 l 248 0 l 130 0 l 130 977 m 667 572 q 694 626 687 593 q 701 710 701 659 q 692 792 701 760 q 659 844 682 825 q 586 873 633 866 q 456 881 539 881 l 248 881 l 248 526 l 436 526 l 481 526 q 522 526 509 526 q 610 538 575 528 q 667 572 644 549 m 217 1263 l 279 1332 l 469 1154 l 425 1101 l 217 1263 m 437 1263 l 499 1332 l 688 1154 l 645 1101 l 437 1263 z "},"Ȓ":{"ha":905,"x_min":130,"x_max":850,"o":"m 130 977 l 432 977 q 552 975 501 977 q 737 920 678 966 q 822 711 822 857 q 804 578 822 631 q 745 494 786 526 q 668 457 714 470 q 559 440 622 444 q 627 374 590 418 q 662 326 646 351 l 850 14 l 747 -28 l 659 121 q 508 361 562 285 q 454 429 477 405 l 248 429 l 248 0 l 130 0 l 130 977 m 667 572 q 694 626 687 593 q 701 710 701 659 q 692 792 701 760 q 659 844 682 825 q 586 873 633 866 q 456 881 539 881 l 248 881 l 248 526 l 436 526 l 481 526 q 522 526 509 526 q 610 538 575 528 q 667 572 644 549 m 218 1104 q 243 1186 223 1147 q 296 1254 264 1225 q 368 1299 328 1283 q 452 1315 408 1315 q 536 1299 496 1315 q 609 1254 577 1283 q 661 1186 641 1225 q 686 1104 682 1147 l 611 1104 q 555 1198 600 1161 q 507 1226 534 1216 q 452 1236 480 1236 q 397 1226 423 1236 q 349 1198 370 1216 q 312 1156 327 1180 q 292 1104 297 1132 l 218 1104 z "},"S":{"ha":821,"x_min":72,"x_max":756,"o":"m 117 204 q 154 156 127 179 q 221 115 181 133 q 310 86 261 96 q 410 76 359 76 q 571 117 515 76 q 634 264 634 164 q 624 338 634 308 q 591 389 614 368 q 533 426 569 410 q 440 454 496 441 l 422 458 q 364 472 408 461 q 290 492 321 483 q 172 548 219 514 q 104 631 125 584 q 82 741 82 678 q 100 844 82 798 q 151 923 117 890 q 255 983 195 964 q 415 1002 315 1002 q 538 991 491 1002 q 623 960 585 981 q 677 925 655 942 q 709 895 699 907 l 669 792 q 639 826 659 808 q 591 860 619 844 q 517 887 559 876 q 408 899 475 899 q 293 886 334 899 q 229 842 253 873 q 200 743 200 806 q 215 677 200 704 q 259 632 230 651 q 322 603 285 615 q 418 578 359 591 q 524 551 487 561 q 594 526 561 541 q 663 489 633 510 q 713 439 692 468 q 756 270 756 377 q 640 29 756 104 q 399 -26 553 -26 q 188 12 278 -26 q 116 54 146 29 q 72 107 87 79 l 117 204 z "},"Š":{"ha":821,"x_min":72,"x_max":756,"o":"m 117 204 q 154 156 127 179 q 221 115 181 133 q 310 86 261 96 q 410 76 359 76 q 571 117 515 76 q 634 264 634 164 q 624 338 634 308 q 591 389 614 368 q 533 426 569 410 q 440 454 496 441 l 422 458 q 364 472 408 461 q 290 492 321 483 q 172 548 219 514 q 104 631 125 584 q 82 741 82 678 q 100 844 82 798 q 151 923 117 890 q 255 983 195 964 q 415 1002 315 1002 q 538 991 491 1002 q 623 960 585 981 q 677 925 655 942 q 709 895 699 907 l 669 792 q 639 826 659 808 q 591 860 619 844 q 517 887 559 876 q 408 899 475 899 q 293 886 334 899 q 229 842 253 873 q 200 743 200 806 q 215 677 200 704 q 259 632 230 651 q 322 603 285 615 q 418 578 359 591 q 524 551 487 561 q 594 526 561 541 q 663 489 633 510 q 713 439 692 468 q 756 270 756 377 q 640 29 756 104 q 399 -26 553 -26 q 188 12 278 -26 q 116 54 146 29 q 72 107 87 79 l 117 204 m 411 1102 l 481 1290 l 579 1290 l 458 1061 l 360 1061 l 239 1290 l 338 1290 l 411 1102 z "},"Ș":{"ha":821,"x_min":72,"x_max":756,"o":"m 117 204 q 154 156 127 179 q 221 115 181 133 q 310 86 261 96 q 410 76 359 76 q 571 117 515 76 q 634 264 634 164 q 624 338 634 308 q 591 389 614 368 q 533 426 569 410 q 440 454 496 441 l 422 458 q 364 472 408 461 q 290 492 321 483 q 172 548 219 514 q 104 631 125 584 q 82 741 82 678 q 100 844 82 798 q 151 923 117 890 q 255 983 195 964 q 415 1002 315 1002 q 538 991 491 1002 q 623 960 585 981 q 677 925 655 942 q 709 895 699 907 l 669 792 q 639 826 659 808 q 591 860 619 844 q 517 887 559 876 q 408 899 475 899 q 293 886 334 899 q 229 842 253 873 q 200 743 200 806 q 215 677 200 704 q 259 632 230 651 q 322 603 285 615 q 418 578 359 591 q 524 551 487 561 q 594 526 561 541 q 663 489 633 510 q 713 439 692 468 q 756 270 756 377 q 640 29 756 104 q 399 -26 553 -26 q 188 12 278 -26 q 116 54 146 29 q 72 107 87 79 l 117 204 m 340 -85 l 463 -85 l 463 -214 q 425 -317 463 -269 q 366 -370 401 -347 l 336 -328 l 353 -309 q 388 -252 376 -281 q 394 -218 394 -236 l 340 -218 l 340 -85 z "},"T":{"ha":777,"x_min":26,"x_max":750,"o":"m 26 880 l 26 977 l 750 977 l 750 880 l 446 880 l 446 -1 l 329 -1 l 329 880 l 26 880 z "},"Ț":{"ha":777,"x_min":26,"x_max":750,"o":"m 26 880 l 26 977 l 750 977 l 750 880 l 446 880 l 446 -1 l 329 -1 l 329 880 l 26 880 m 327 -54 l 449 -54 l 449 -183 q 411 -286 449 -238 q 352 -338 387 -315 l 323 -297 l 340 -277 q 374 -221 363 -250 q 380 -186 380 -205 l 327 -186 l 327 -54 z "},"U":{"ha":1025,"x_min":119,"x_max":905,"o":"m 787 977 l 905 977 l 905 467 q 873 182 905 294 q 806 59 848 96 q 709 2 770 26 q 512 -33 620 -33 q 313 2 404 -33 q 254 30 279 15 q 214 59 229 45 q 149 182 172 96 q 119 460 119 288 l 119 977 l 237 977 l 237 463 q 254 244 237 329 q 288 146 268 176 q 315 120 297 134 q 358 96 332 106 q 515 67 422 67 q 669 94 608 67 q 739 146 720 115 q 753 172 741 150 q 782 304 770 212 q 787 421 787 356 l 787 977 z "},"Ú":{"ha":1025,"x_min":119,"x_max":905,"o":"m 787 977 l 905 977 l 905 467 q 873 182 905 294 q 806 59 848 96 q 709 2 770 26 q 512 -33 620 -33 q 313 2 404 -33 q 254 30 279 15 q 214 59 229 45 q 149 182 172 96 q 119 460 119 288 l 119 977 l 237 977 l 237 463 q 254 244 237 329 q 288 146 268 176 q 315 120 297 134 q 358 96 332 106 q 515 67 422 67 q 669 94 608 67 q 739 146 720 115 q 753 172 741 150 q 782 304 770 212 q 787 421 787 356 l 787 977 m 436 1092 l 372 1114 l 534 1370 l 652 1320 l 436 1092 z "},"Û":{"ha":1025,"x_min":119,"x_max":905,"o":"m 787 977 l 905 977 l 905 467 q 873 182 905 294 q 806 59 848 96 q 709 2 770 26 q 512 -33 620 -33 q 313 2 404 -33 q 254 30 279 15 q 214 59 229 45 q 149 182 172 96 q 119 460 119 288 l 119 977 l 237 977 l 237 463 q 254 244 237 329 q 288 146 268 176 q 315 120 297 134 q 358 96 332 106 q 515 67 422 67 q 669 94 608 67 q 739 146 720 115 q 753 172 741 150 q 782 304 770 212 q 787 421 787 356 l 787 977 m 682 1061 l 583 1061 l 513 1249 l 440 1061 l 342 1061 l 463 1290 l 560 1290 l 682 1061 z "},"Ȕ":{"ha":1025,"x_min":119,"x_max":905,"o":"m 787 977 l 905 977 l 905 467 q 873 182 905 294 q 806 59 848 96 q 709 2 770 26 q 512 -33 620 -33 q 313 2 404 -33 q 254 30 279 15 q 214 59 229 45 q 149 182 172 96 q 119 460 119 288 l 119 977 l 237 977 l 237 463 q 254 244 237 329 q 288 146 268 176 q 315 120 297 134 q 358 96 332 106 q 515 67 422 67 q 669 94 608 67 q 739 146 720 115 q 753 172 741 150 q 782 304 770 212 q 787 421 787 356 l 787 977 m 277 1263 l 339 1332 l 528 1154 l 485 1101 l 277 1263 m 496 1263 l 559 1332 l 747 1154 l 705 1101 l 496 1263 z "},"Ü":{"ha":1025,"x_min":119,"x_max":905,"o":"m 787 977 l 905 977 l 905 467 q 873 182 905 294 q 806 59 848 96 q 709 2 770 26 q 512 -33 620 -33 q 313 2 404 -33 q 254 30 279 15 q 214 59 229 45 q 149 182 172 96 q 119 460 119 288 l 119 977 l 237 977 l 237 463 q 254 244 237 329 q 288 146 268 176 q 315 120 297 134 q 358 96 332 106 q 515 67 422 67 q 669 94 608 67 q 739 146 720 115 q 753 172 741 150 q 782 304 770 212 q 787 421 787 356 l 787 977 m 370 1268 q 422 1251 408 1268 q 433 1201 433 1236 q 420 1152 433 1166 q 370 1137 407 1137 q 321 1152 336 1137 q 307 1201 307 1168 q 321 1252 307 1236 q 370 1268 334 1268 m 653 1268 q 705 1251 692 1268 q 717 1201 717 1236 q 704 1152 717 1166 q 653 1137 690 1137 q 605 1152 619 1137 q 591 1201 591 1168 q 604 1252 591 1236 q 653 1268 618 1268 z "},"Ù":{"ha":1025,"x_min":119,"x_max":905,"o":"m 787 977 l 905 977 l 905 467 q 873 182 905 294 q 806 59 848 96 q 709 2 770 26 q 512 -33 620 -33 q 313 2 404 -33 q 254 30 279 15 q 214 59 229 45 q 149 182 172 96 q 119 460 119 288 l 119 977 l 237 977 l 237 463 q 254 244 237 329 q 288 146 268 176 q 315 120 297 134 q 358 96 332 106 q 515 67 422 67 q 669 94 608 67 q 739 146 720 115 q 753 172 741 150 q 782 304 770 212 q 787 421 787 356 l 787 977 m 490 1370 l 652 1114 l 589 1092 l 371 1320 l 490 1370 z "},"Ȗ":{"ha":1025,"x_min":119,"x_max":905,"o":"m 787 977 l 905 977 l 905 467 q 873 182 905 294 q 806 59 848 96 q 709 2 770 26 q 512 -33 620 -33 q 313 2 404 -33 q 254 30 279 15 q 214 59 229 45 q 149 182 172 96 q 119 460 119 288 l 119 977 l 237 977 l 237 463 q 254 244 237 329 q 288 146 268 176 q 315 120 297 134 q 358 96 332 106 q 515 67 422 67 q 669 94 608 67 q 739 146 720 115 q 753 172 741 150 q 782 304 770 212 q 787 421 787 356 l 787 977 m 278 1104 q 303 1186 283 1147 q 355 1254 323 1225 q 428 1299 387 1283 q 511 1315 468 1315 q 596 1299 555 1315 q 669 1254 637 1283 q 721 1186 701 1225 q 746 1104 741 1147 l 671 1104 q 615 1198 659 1161 q 567 1226 593 1216 q 511 1236 540 1236 q 456 1226 483 1236 q 408 1198 430 1216 q 372 1156 387 1180 q 351 1104 357 1132 l 278 1104 z "},"V":{"ha":831,"x_min":14,"x_max":814,"o":"m 364 0 l 332 85 q 217 397 296 177 q 131 641 165 543 l 14 977 l 132 977 l 237 675 l 292 513 q 336 383 311 457 l 368 288 q 416 128 408 168 q 448 237 423 158 q 503 400 477 324 l 531 486 l 557 564 l 580 630 l 595 675 l 696 977 l 814 977 l 677 576 q 549 210 598 348 q 544 196 547 203 q 539 182 542 189 l 498 68 l 477 16 q 472 0 473 3 l 364 0 z "},"W":{"ha":1213,"x_min":26,"x_max":1188,"o":"m 351 132 l 389 323 l 513 848 l 549 977 l 664 977 l 699 848 l 823 321 l 863 131 l 904 323 l 1077 977 l 1188 977 l 922 0 l 805 0 l 644 669 l 606 853 l 569 669 l 408 0 l 291 0 l 26 977 l 138 977 l 309 324 l 351 132 z "},"X":{"ha":808,"x_min":31,"x_max":781,"o":"m 237 660 l 40 977 l 174 977 l 242 863 l 281 799 l 317 736 l 403 591 l 629 977 l 760 977 l 568 661 l 469 507 l 575 339 l 781 0 l 646 0 l 403 416 l 165 0 l 31 0 l 235 338 l 338 505 l 237 660 z "},"Y":{"ha":774,"x_min":-3,"x_max":781,"o":"m 328 406 q 198 625 243 546 l 144 718 q 39 901 107 780 q -3 977 12 950 l 123 977 q 183 869 142 942 l 218 805 q 254 741 227 788 l 338 591 l 388 502 l 437 591 q 522 741 489 685 l 557 805 l 627 928 l 654 977 l 781 977 q 688 813 743 907 q 633 719 669 783 l 618 694 l 577 626 q 446 408 530 547 l 446 0 l 328 0 l 328 406 z "},"Ý":{"ha":774,"x_min":-3,"x_max":781,"o":"m 328 406 q 198 625 243 546 l 144 718 q 39 901 107 780 q -3 977 12 950 l 123 977 q 183 869 142 942 l 218 805 q 254 741 227 788 l 338 591 l 388 502 l 437 591 q 522 741 489 685 l 557 805 l 627 928 l 654 977 l 781 977 q 688 813 743 907 q 633 719 669 783 l 618 694 l 577 626 q 446 408 530 547 l 446 0 l 328 0 l 328 406 m 313 1092 l 249 1114 l 411 1370 l 528 1320 l 313 1092 z "},"Ÿ":{"ha":774,"x_min":-3,"x_max":781,"o":"m 328 406 q 198 625 243 546 l 144 718 q 39 901 107 780 q -3 977 12 950 l 123 977 q 183 869 142 942 l 218 805 q 254 741 227 788 l 338 591 l 388 502 l 437 591 q 522 741 489 685 l 557 805 l 627 928 l 654 977 l 781 977 q 688 813 743 907 q 633 719 669 783 l 618 694 l 577 626 q 446 408 530 547 l 446 0 l 328 0 l 328 406 m 244 1268 q 296 1251 283 1268 q 308 1201 308 1236 q 295 1152 308 1166 q 244 1137 281 1137 q 196 1152 210 1137 q 182 1201 182 1168 q 195 1252 182 1236 q 244 1268 209 1268 m 528 1268 q 580 1251 566 1268 q 591 1201 591 1236 q 578 1152 591 1166 q 528 1137 565 1137 q 479 1152 494 1137 q 465 1201 465 1168 q 479 1252 465 1236 q 528 1268 492 1268 z "},"Z":{"ha":802,"x_min":33,"x_max":743,"o":"m 103 977 l 711 977 l 726 865 q 633 737 694 824 l 565 640 q 408 414 474 510 l 301 260 q 253 191 290 243 q 188 98 233 161 l 743 98 l 743 0 l 60 0 l 33 69 q 237 350 146 223 l 287 420 q 452 654 366 531 l 542 783 q 608 880 579 837 l 103 880 l 103 977 z "},"Ž":{"ha":802,"x_min":33,"x_max":743,"o":"m 103 977 l 711 977 l 726 865 q 633 737 694 824 l 565 640 q 408 414 474 510 l 301 260 q 253 191 290 243 q 188 98 233 161 l 743 98 l 743 0 l 60 0 l 33 69 q 237 350 146 223 l 287 420 q 452 654 366 531 l 542 783 q 608 880 579 837 l 103 880 l 103 977 m 406 1102 l 475 1290 l 574 1290 l 452 1061 l 355 1061 l 234 1290 l 332 1290 l 406 1102 z "},"a":{"ha":740,"x_min":67,"x_max":673,"o":"m 91 541 q 127 630 102 601 q 153 653 138 644 q 189 673 168 663 q 366 702 254 702 q 542 674 477 702 q 603 625 587 654 q 622 560 616 598 q 631 401 631 501 l 631 143 q 633 102 631 122 q 638 79 634 86 q 650 69 642 71 q 673 67 659 67 l 673 -10 q 625 -17 650 -17 q 557 22 576 -10 q 542 80 542 45 q 513 51 532 66 q 467 21 494 35 q 305 -16 397 -16 q 169 7 223 -16 q 106 50 126 24 q 81 98 92 66 q 67 191 67 140 q 81 290 67 251 q 106 334 90 315 q 181 383 129 362 q 362 416 254 411 q 416 417 403 417 q 495 420 465 417 q 528 425 509 420 q 517 557 528 519 q 508 580 513 573 q 494 591 502 587 l 482 597 q 423 614 460 609 q 367 616 402 616 q 250 606 292 616 q 223 595 232 601 q 205 577 214 589 q 178 509 184 549 l 91 541 m 528 349 q 502 344 517 346 q 471 340 488 342 l 429 338 q 360 335 399 338 q 294 327 322 332 q 211 299 236 315 q 191 281 197 290 q 180 252 185 273 q 174 193 174 230 q 179 138 174 161 q 189 108 184 116 q 224 81 200 90 q 330 67 258 67 q 413 78 376 67 q 476 107 450 88 q 514 150 501 125 q 528 200 528 174 l 528 349 z "},"á":{"ha":740,"x_min":67,"x_max":673,"o":"m 91 541 q 127 630 102 601 q 153 653 138 644 q 189 673 168 663 q 366 702 254 702 q 542 674 477 702 q 603 625 587 654 q 622 560 616 598 q 631 401 631 501 l 631 143 q 633 102 631 122 q 638 79 634 86 q 650 69 642 71 q 673 67 659 67 l 673 -10 q 625 -17 650 -17 q 557 22 576 -10 q 542 80 542 45 q 513 51 532 66 q 467 21 494 35 q 305 -16 397 -16 q 169 7 223 -16 q 106 50 126 24 q 81 98 92 66 q 67 191 67 140 q 81 290 67 251 q 106 334 90 315 q 181 383 129 362 q 362 416 254 411 q 416 417 403 417 q 495 420 465 417 q 528 425 509 420 q 517 557 528 519 q 508 580 513 573 q 494 591 502 587 l 482 597 q 423 614 460 609 q 367 616 402 616 q 250 606 292 616 q 223 595 232 601 q 205 577 214 589 q 178 509 184 549 l 91 541 m 528 349 q 502 344 517 346 q 471 340 488 342 l 429 338 q 360 335 399 338 q 294 327 322 332 q 211 299 236 315 q 191 281 197 290 q 180 252 185 273 q 174 193 174 230 q 179 138 174 161 q 189 108 184 116 q 224 81 200 90 q 330 67 258 67 q 413 78 376 67 q 476 107 450 88 q 514 150 501 125 q 528 200 528 174 l 528 349 m 300 800 l 237 822 l 399 1078 l 516 1028 l 300 800 z "},"â":{"ha":740,"x_min":67,"x_max":673,"o":"m 91 541 q 127 630 102 601 q 153 653 138 644 q 189 673 168 663 q 366 702 254 702 q 542 674 477 702 q 603 625 587 654 q 622 560 616 598 q 631 401 631 501 l 631 143 q 633 102 631 122 q 638 79 634 86 q 650 69 642 71 q 673 67 659 67 l 673 -10 q 625 -17 650 -17 q 557 22 576 -10 q 542 80 542 45 q 513 51 532 66 q 467 21 494 35 q 305 -16 397 -16 q 169 7 223 -16 q 106 50 126 24 q 81 98 92 66 q 67 191 67 140 q 81 290 67 251 q 106 334 90 315 q 181 383 129 362 q 362 416 254 411 q 416 417 403 417 q 495 420 465 417 q 528 425 509 420 q 517 557 528 519 q 508 580 513 573 q 494 591 502 587 l 482 597 q 423 614 460 609 q 367 616 402 616 q 250 606 292 616 q 223 595 232 601 q 205 577 214 589 q 178 509 184 549 l 91 541 m 528 349 q 502 344 517 346 q 471 340 488 342 l 429 338 q 360 335 399 338 q 294 327 322 332 q 211 299 236 315 q 191 281 197 290 q 180 252 185 273 q 174 193 174 230 q 179 138 174 161 q 189 108 184 116 q 224 81 200 90 q 330 67 258 67 q 413 78 376 67 q 476 107 450 88 q 514 150 501 125 q 528 200 528 174 l 528 349 m 547 770 l 448 770 l 378 958 l 305 770 l 207 770 l 328 998 l 425 998 l 547 770 z "},"ȁ":{"ha":740,"x_min":67,"x_max":673,"o":"m 91 541 q 127 630 102 601 q 153 653 138 644 q 189 673 168 663 q 366 702 254 702 q 542 674 477 702 q 603 625 587 654 q 622 560 616 598 q 631 401 631 501 l 631 143 q 633 102 631 122 q 638 79 634 86 q 650 69 642 71 q 673 67 659 67 l 673 -10 q 625 -17 650 -17 q 557 22 576 -10 q 542 80 542 45 q 513 51 532 66 q 467 21 494 35 q 305 -16 397 -16 q 169 7 223 -16 q 106 50 126 24 q 81 98 92 66 q 67 191 67 140 q 81 290 67 251 q 106 334 90 315 q 181 383 129 362 q 362 416 254 411 q 416 417 403 417 q 495 420 465 417 q 528 425 509 420 q 517 557 528 519 q 508 580 513 573 q 494 591 502 587 l 482 597 q 423 614 460 609 q 367 616 402 616 q 250 606 292 616 q 223 595 232 601 q 205 577 214 589 q 178 509 184 549 l 91 541 m 528 349 q 502 344 517 346 q 471 340 488 342 l 429 338 q 360 335 399 338 q 294 327 322 332 q 211 299 236 315 q 191 281 197 290 q 180 252 185 273 q 174 193 174 230 q 179 138 174 161 q 189 108 184 116 q 224 81 200 90 q 330 67 258 67 q 413 78 376 67 q 476 107 450 88 q 514 150 501 125 q 528 200 528 174 l 528 349 m 134 971 l 197 1040 l 386 863 l 342 810 l 134 971 m 354 971 l 416 1040 l 605 863 l 562 810 l 354 971 z "},"ä":{"ha":740,"x_min":67,"x_max":673,"o":"m 91 541 q 127 630 102 601 q 153 653 138 644 q 189 673 168 663 q 366 702 254 702 q 542 674 477 702 q 603 625 587 654 q 622 560 616 598 q 631 401 631 501 l 631 143 q 633 102 631 122 q 638 79 634 86 q 650 69 642 71 q 673 67 659 67 l 673 -10 q 625 -17 650 -17 q 557 22 576 -10 q 542 80 542 45 q 513 51 532 66 q 467 21 494 35 q 305 -16 397 -16 q 169 7 223 -16 q 106 50 126 24 q 81 98 92 66 q 67 191 67 140 q 81 290 67 251 q 106 334 90 315 q 181 383 129 362 q 362 416 254 411 q 416 417 403 417 q 495 420 465 417 q 528 425 509 420 q 517 557 528 519 q 508 580 513 573 q 494 591 502 587 l 482 597 q 423 614 460 609 q 367 616 402 616 q 250 606 292 616 q 223 595 232 601 q 205 577 214 589 q 178 509 184 549 l 91 541 m 528 349 q 502 344 517 346 q 471 340 488 342 l 429 338 q 360 335 399 338 q 294 327 322 332 q 211 299 236 315 q 191 281 197 290 q 180 252 185 273 q 174 193 174 230 q 179 138 174 161 q 189 108 184 116 q 224 81 200 90 q 330 67 258 67 q 413 78 376 67 q 476 107 450 88 q 514 150 501 125 q 528 200 528 174 l 528 349 m 234 977 q 286 960 273 977 q 298 909 298 945 q 284 860 298 875 q 234 845 271 845 q 186 861 200 845 q 172 909 172 876 q 185 960 172 944 q 234 977 199 977 m 517 977 q 570 960 556 977 q 581 909 581 945 q 568 860 581 875 q 517 845 555 845 q 469 861 484 845 q 455 909 455 876 q 469 960 455 944 q 517 977 482 977 z "},"à":{"ha":740,"x_min":67,"x_max":673,"o":"m 91 541 q 127 630 102 601 q 153 653 138 644 q 189 673 168 663 q 366 702 254 702 q 542 674 477 702 q 603 625 587 654 q 622 560 616 598 q 631 401 631 501 l 631 143 q 633 102 631 122 q 638 79 634 86 q 650 69 642 71 q 673 67 659 67 l 673 -10 q 625 -17 650 -17 q 557 22 576 -10 q 542 80 542 45 q 513 51 532 66 q 467 21 494 35 q 305 -16 397 -16 q 169 7 223 -16 q 106 50 126 24 q 81 98 92 66 q 67 191 67 140 q 81 290 67 251 q 106 334 90 315 q 181 383 129 362 q 362 416 254 411 q 416 417 403 417 q 495 420 465 417 q 528 425 509 420 q 517 557 528 519 q 508 580 513 573 q 494 591 502 587 l 482 597 q 423 614 460 609 q 367 616 402 616 q 250 606 292 616 q 223 595 232 601 q 205 577 214 589 q 178 509 184 549 l 91 541 m 528 349 q 502 344 517 346 q 471 340 488 342 l 429 338 q 360 335 399 338 q 294 327 322 332 q 211 299 236 315 q 191 281 197 290 q 180 252 185 273 q 174 193 174 230 q 179 138 174 161 q 189 108 184 116 q 224 81 200 90 q 330 67 258 67 q 413 78 376 67 q 476 107 450 88 q 514 150 501 125 q 528 200 528 174 l 528 349 m 355 1078 l 517 822 l 454 800 l 236 1028 l 355 1078 z "},"ȃ":{"ha":740,"x_min":67,"x_max":673,"o":"m 91 541 q 127 630 102 601 q 153 653 138 644 q 189 673 168 663 q 366 702 254 702 q 542 674 477 702 q 603 625 587 654 q 622 560 616 598 q 631 401 631 501 l 631 143 q 633 102 631 122 q 638 79 634 86 q 650 69 642 71 q 673 67 659 67 l 673 -10 q 625 -17 650 -17 q 557 22 576 -10 q 542 80 542 45 q 513 51 532 66 q 467 21 494 35 q 305 -16 397 -16 q 169 7 223 -16 q 106 50 126 24 q 81 98 92 66 q 67 191 67 140 q 81 290 67 251 q 106 334 90 315 q 181 383 129 362 q 362 416 254 411 q 416 417 403 417 q 495 420 465 417 q 528 425 509 420 q 517 557 528 519 q 508 580 513 573 q 494 591 502 587 l 482 597 q 423 614 460 609 q 367 616 402 616 q 250 606 292 616 q 223 595 232 601 q 205 577 214 589 q 178 509 184 549 l 91 541 m 528 349 q 502 344 517 346 q 471 340 488 342 l 429 338 q 360 335 399 338 q 294 327 322 332 q 211 299 236 315 q 191 281 197 290 q 180 252 185 273 q 174 193 174 230 q 179 138 174 161 q 189 108 184 116 q 224 81 200 90 q 330 67 258 67 q 413 78 376 67 q 476 107 450 88 q 514 150 501 125 q 528 200 528 174 l 528 349 m 136 812 q 161 895 140 856 q 213 962 181 933 q 285 1007 245 991 q 369 1023 326 1023 q 454 1007 413 1023 q 526 962 494 991 q 578 895 558 933 q 604 812 599 856 l 528 812 q 473 907 517 869 q 424 934 451 924 q 369 944 397 944 q 314 934 340 944 q 266 907 288 924 q 229 864 244 888 q 209 812 214 840 l 136 812 z "},"å":{"ha":740,"x_min":67,"x_max":673,"o":"m 91 541 q 127 630 102 601 q 153 653 138 644 q 189 673 168 663 q 366 702 254 702 q 542 674 477 702 q 603 625 587 654 q 622 560 616 598 q 631 401 631 501 l 631 143 q 633 102 631 122 q 638 79 634 86 q 650 69 642 71 q 673 67 659 67 l 673 -10 q 625 -17 650 -17 q 557 22 576 -10 q 542 80 542 45 q 513 51 532 66 q 467 21 494 35 q 305 -16 397 -16 q 169 7 223 -16 q 106 50 126 24 q 81 98 92 66 q 67 191 67 140 q 81 290 67 251 q 106 334 90 315 q 181 383 129 362 q 362 416 254 411 q 416 417 403 417 q 495 420 465 417 q 528 425 509 420 q 517 557 528 519 q 508 580 513 573 q 494 591 502 587 l 482 597 q 423 614 460 609 q 367 616 402 616 q 250 606 292 616 q 223 595 232 601 q 205 577 214 589 q 178 509 184 549 l 91 541 m 528 349 q 502 344 517 346 q 471 340 488 342 l 429 338 q 360 335 399 338 q 294 327 322 332 q 211 299 236 315 q 191 281 197 290 q 180 252 185 273 q 174 193 174 230 q 179 138 174 161 q 189 108 184 116 q 224 81 200 90 q 330 67 258 67 q 413 78 376 67 q 476 107 450 88 q 514 150 501 125 q 528 200 528 174 l 528 349 m 267 892 q 298 969 267 939 q 378 998 329 998 q 420 990 400 998 q 456 968 441 982 q 486 891 486 938 q 455 814 486 843 q 376 784 424 784 q 298 814 330 784 q 267 892 267 844 m 321 892 q 335 850 321 865 q 377 834 349 834 q 419 850 405 834 q 434 891 434 865 q 419 933 434 917 q 377 949 405 949 q 335 933 350 949 q 321 892 321 918 z "},"ã":{"ha":740,"x_min":67,"x_max":673,"o":"m 91 541 q 127 630 102 601 q 153 653 138 644 q 189 673 168 663 q 366 702 254 702 q 542 674 477 702 q 603 625 587 654 q 622 560 616 598 q 631 401 631 501 l 631 143 q 633 102 631 122 q 638 79 634 86 q 650 69 642 71 q 673 67 659 67 l 673 -10 q 625 -17 650 -17 q 557 22 576 -10 q 542 80 542 45 q 513 51 532 66 q 467 21 494 35 q 305 -16 397 -16 q 169 7 223 -16 q 106 50 126 24 q 81 98 92 66 q 67 191 67 140 q 81 290 67 251 q 106 334 90 315 q 181 383 129 362 q 362 416 254 411 q 416 417 403 417 q 495 420 465 417 q 528 425 509 420 q 517 557 528 519 q 508 580 513 573 q 494 591 502 587 l 482 597 q 423 614 460 609 q 367 616 402 616 q 250 606 292 616 q 223 595 232 601 q 205 577 214 589 q 178 509 184 549 l 91 541 m 528 349 q 502 344 517 346 q 471 340 488 342 l 429 338 q 360 335 399 338 q 294 327 322 332 q 211 299 236 315 q 191 281 197 290 q 180 252 185 273 q 174 193 174 230 q 179 138 174 161 q 189 108 184 116 q 224 81 200 90 q 330 67 258 67 q 413 78 376 67 q 476 107 450 88 q 514 150 501 125 q 528 200 528 174 l 528 349 m 190 852 q 225 951 190 921 q 302 977 254 977 q 340 970 319 977 q 388 949 360 962 q 401 942 395 945 q 412 937 407 939 l 426 929 q 451 920 444 920 q 477 934 469 920 q 487 977 486 948 l 563 977 q 530 878 563 911 q 456 851 503 851 q 414 858 434 851 q 372 878 395 864 q 327 904 340 898 q 303 911 315 911 q 267 852 267 911 l 190 852 z "},"æ":{"ha":1174,"x_min":67,"x_max":1101,"o":"m 91 541 q 127 630 102 601 q 153 653 138 644 q 189 673 168 663 q 366 702 254 702 q 532 669 469 702 q 570 641 555 656 q 589 612 584 625 l 591 608 l 591 608 q 667 669 619 645 q 826 701 733 701 q 981 669 921 701 q 1048 609 1023 646 q 1082 541 1067 583 q 1101 401 1101 482 l 1101 387 q 1100 365 1100 380 l 1100 342 q 1099 326 1099 334 l 633 326 q 675 131 633 199 q 717 87 692 101 q 777 69 735 76 q 831 66 801 66 q 921 78 886 66 q 960 97 945 86 q 989 135 978 109 q 1010 208 1001 160 l 1094 185 q 1068 95 1084 128 q 1055 73 1060 79 q 1044 61 1050 68 q 974 9 1020 30 q 829 -17 916 -17 q 682 8 742 -17 q 582 100 609 38 q 476 14 546 45 q 305 -17 406 -17 q 169 7 224 -17 q 106 50 126 24 q 81 98 92 66 q 67 191 67 140 q 81 290 67 251 q 106 334 90 315 q 181 383 129 362 q 362 416 254 411 q 416 417 403 417 q 495 420 465 417 q 528 425 509 420 q 517 557 528 519 q 508 580 513 573 q 494 591 502 587 l 482 597 q 423 614 460 609 q 367 616 402 616 q 250 606 292 616 q 223 595 232 601 q 205 577 214 589 q 178 509 184 549 l 91 541 m 942 403 l 996 399 q 973 535 991 484 q 941 585 960 571 q 900 607 919 600 q 823 618 869 618 q 726 602 765 618 q 682 574 698 591 q 654 523 664 555 q 635 403 637 473 l 942 403 m 528 349 q 502 344 517 346 q 471 340 488 342 l 429 338 q 360 335 399 338 q 294 327 322 332 q 211 299 236 315 q 191 281 197 290 q 180 252 185 273 q 174 193 174 230 q 179 138 174 161 q 189 108 184 116 q 224 81 200 90 q 330 67 258 67 q 413 78 376 67 q 476 107 450 88 q 514 150 501 125 q 528 200 528 174 l 528 349 z "},"b":{"ha":788,"x_min":107,"x_max":710,"o":"m 107 977 l 212 977 l 212 572 q 244 619 228 599 q 283 656 260 640 q 438 699 344 699 q 579 673 520 699 q 644 631 618 656 q 688 546 672 602 q 710 343 710 471 q 693 160 710 231 q 680 117 687 134 q 663 83 672 100 q 635 49 653 66 q 592 18 617 32 q 437 -16 530 -16 q 265 33 331 -16 q 201 106 224 62 l 188 0 l 107 0 l 107 977 m 413 616 q 299 599 342 616 q 253 565 270 587 q 225 504 235 541 q 211 347 211 446 q 224 186 211 255 q 235 144 229 157 q 247 120 241 128 q 266 102 253 112 q 344 73 291 81 q 412 68 370 68 q 522 85 484 68 q 566 119 551 98 q 591 180 582 141 q 604 338 604 237 q 591 502 604 442 q 567 566 582 543 q 524 600 553 588 q 413 616 483 616 z "},"c":{"ha":724,"x_min":74,"x_max":661,"o":"m 661 182 q 638 92 654 124 q 607 50 627 69 q 541 9 583 25 q 390 -16 477 -16 q 226 14 296 -16 q 145 68 174 35 q 99 153 115 102 q 74 345 74 230 q 99 534 74 458 q 146 618 115 583 q 227 672 174 650 q 391 702 297 702 q 538 677 475 702 q 603 636 578 661 q 633 593 621 618 q 656 501 650 557 l 571 477 q 555 546 564 524 q 539 574 548 564 q 492 603 524 592 q 388 617 449 617 q 269 600 314 617 q 220 564 237 586 q 193 503 202 541 q 180 344 180 448 q 194 180 180 239 q 222 119 204 140 q 273 83 237 97 q 391 66 315 66 q 496 81 455 66 q 545 110 526 90 q 562 138 555 119 q 578 206 572 163 l 661 182 z "},"ç":{"ha":726,"x_min":76,"x_max":663,"o":"m 663 182 q 640 92 656 124 q 609 50 629 69 q 543 9 585 25 q 392 -16 479 -16 l 381 -16 l 361 -81 q 441 -94 412 -81 q 484 -160 484 -113 q 475 -202 484 -182 q 452 -237 467 -222 q 369 -267 421 -267 q 286 -253 318 -267 q 243 -222 265 -244 l 263 -182 q 303 -204 281 -197 q 357 -210 326 -210 q 398 -199 387 -210 q 410 -168 410 -188 q 399 -135 410 -144 q 366 -125 388 -125 l 330 -125 l 296 -83 l 317 -10 q 228 14 269 -3 q 147 68 176 35 q 101 153 117 102 q 76 345 76 230 q 101 534 76 458 q 148 618 117 583 q 229 672 176 650 q 393 702 299 702 q 541 677 477 702 q 605 636 580 661 q 635 593 623 618 q 659 501 652 557 l 573 477 q 557 546 566 524 q 541 574 550 564 q 494 603 526 592 q 390 617 451 617 q 271 600 316 617 q 222 564 239 586 q 195 503 204 541 q 182 344 182 448 q 196 180 182 239 q 224 119 206 140 q 275 83 239 97 q 393 66 317 66 q 498 81 457 66 q 547 110 528 90 q 564 138 557 119 q 581 206 574 163 l 663 182 z "},"d":{"ha":789,"x_min":77,"x_max":682,"o":"m 577 977 l 682 977 l 682 0 l 599 0 l 587 113 q 559 71 574 90 q 522 33 545 51 q 351 -16 458 -16 q 195 19 260 -16 q 152 50 170 33 q 124 85 134 68 q 107 118 115 101 q 94 160 100 134 q 77 342 77 228 q 100 545 77 469 q 146 630 116 599 q 212 675 174 658 q 353 701 268 701 q 508 665 448 701 q 577 581 555 635 l 577 977 m 377 616 q 265 597 307 616 q 220 561 237 585 q 196 496 205 539 q 183 336 183 437 q 197 180 183 233 q 221 122 205 143 q 264 87 239 98 q 375 69 304 69 q 488 87 446 69 q 534 122 517 100 q 562 183 552 144 q 577 342 577 243 q 567 489 577 428 q 559 528 563 513 q 551 547 552 546 q 488 600 530 584 q 377 616 446 616 z "},"ð":{"ha":759,"x_min":59,"x_max":676,"o":"m 104 831 l 148 859 q 265 909 203 895 q 344 918 300 918 q 467 896 409 918 q 542 853 508 879 l 619 913 l 667 845 l 595 793 q 648 660 627 741 q 676 406 676 549 q 659 231 676 309 q 619 119 644 167 q 571 49 596 73 q 513 9 546 25 q 363 -22 446 -22 q 189 21 263 -22 q 134 64 155 41 q 71 196 93 117 q 59 290 59 239 q 109 484 59 404 q 151 535 129 517 q 200 566 173 554 q 334 589 260 589 q 457 564 398 589 q 560 489 516 539 q 543 648 560 578 q 511 732 530 695 l 435 676 l 393 738 l 459 789 q 340 823 406 823 q 201 789 265 823 q 152 755 170 772 l 104 831 m 362 67 q 465 88 423 67 q 500 112 486 98 q 528 157 515 127 q 559 347 559 230 q 526 410 547 381 q 476 459 505 438 q 349 500 418 500 q 252 479 296 500 q 218 456 231 469 q 195 423 205 444 q 170 290 170 373 q 186 162 170 210 q 203 131 193 141 q 236 100 215 113 q 288 77 256 87 q 362 67 317 67 z "},"e":{"ha":743,"x_min":75,"x_max":671,"o":"m 664 185 q 638 95 654 128 q 625 73 630 79 q 614 61 620 68 q 538 10 589 31 q 382 -16 474 -16 q 224 10 288 -16 q 151 60 178 29 q 102 147 120 97 q 75 342 75 222 q 103 537 75 461 q 152 622 121 586 q 227 674 177 652 q 380 701 290 701 q 546 669 480 701 q 618 609 592 646 q 652 541 637 583 q 671 401 671 482 l 671 387 q 670 365 670 380 l 670 342 q 669 326 669 334 l 180 326 q 222 131 180 199 q 264 87 239 101 q 328 69 281 77 q 385 66 353 66 q 486 78 446 66 q 530 97 514 87 q 559 135 548 109 q 580 208 571 160 l 664 185 m 512 403 l 566 399 q 543 535 561 484 q 511 585 530 571 q 459 608 492 598 q 377 618 426 618 q 275 602 317 618 q 229 574 245 591 q 201 523 211 555 q 182 403 184 473 l 512 403 z "},"é":{"ha":743,"x_min":75,"x_max":671,"o":"m 664 185 q 638 95 654 128 q 625 73 630 79 q 614 61 620 68 q 538 10 589 31 q 382 -16 474 -16 q 224 10 288 -16 q 151 60 178 29 q 102 147 120 97 q 75 342 75 222 q 103 537 75 461 q 152 622 121 586 q 227 674 177 652 q 380 701 290 701 q 546 669 480 701 q 618 609 592 646 q 652 541 637 583 q 671 401 671 482 l 671 387 q 670 365 670 380 l 670 342 q 669 326 669 334 l 180 326 q 222 131 180 199 q 264 87 239 101 q 328 69 281 77 q 385 66 353 66 q 486 78 446 66 q 530 97 514 87 q 559 135 548 109 q 580 208 571 160 l 664 185 m 512 403 l 566 399 q 543 535 561 484 q 511 585 530 571 q 459 608 492 598 q 377 618 426 618 q 275 602 317 618 q 229 574 245 591 q 201 523 211 555 q 182 403 184 473 l 512 403 m 295 800 l 231 822 l 393 1078 l 511 1028 l 295 800 z "},"ê":{"ha":743,"x_min":75,"x_max":671,"o":"m 664 185 q 638 95 654 128 q 625 73 630 79 q 614 61 620 68 q 538 10 589 31 q 382 -16 474 -16 q 224 10 288 -16 q 151 60 178 29 q 102 147 120 97 q 75 342 75 222 q 103 537 75 461 q 152 622 121 586 q 227 674 177 652 q 380 701 290 701 q 546 669 480 701 q 618 609 592 646 q 652 541 637 583 q 671 401 671 482 l 671 387 q 670 365 670 380 l 670 342 q 669 326 669 334 l 180 326 q 222 131 180 199 q 264 87 239 101 q 328 69 281 77 q 385 66 353 66 q 486 78 446 66 q 530 97 514 87 q 559 135 548 109 q 580 208 571 160 l 664 185 m 512 403 l 566 399 q 543 535 561 484 q 511 585 530 571 q 459 608 492 598 q 377 618 426 618 q 275 602 317 618 q 229 574 245 591 q 201 523 211 555 q 182 403 184 473 l 512 403 m 541 770 l 443 770 l 373 958 l 300 770 l 201 770 l 322 998 l 420 998 l 541 770 z "},"ȅ":{"ha":743,"x_min":75,"x_max":671,"o":"m 664 185 q 638 95 654 128 q 625 73 630 79 q 614 61 620 68 q 538 10 589 31 q 382 -16 474 -16 q 224 10 288 -16 q 151 60 178 29 q 102 147 120 97 q 75 342 75 222 q 103 537 75 461 q 152 622 121 586 q 227 674 177 652 q 380 701 290 701 q 546 669 480 701 q 618 609 592 646 q 652 541 637 583 q 671 401 671 482 l 671 387 q 670 365 670 380 l 670 342 q 669 326 669 334 l 180 326 q 222 131 180 199 q 264 87 239 101 q 328 69 281 77 q 385 66 353 66 q 486 78 446 66 q 530 97 514 87 q 559 135 548 109 q 580 208 571 160 l 664 185 m 512 403 l 566 399 q 543 535 561 484 q 511 585 530 571 q 459 608 492 598 q 377 618 426 618 q 275 602 317 618 q 229 574 245 591 q 201 523 211 555 q 182 403 184 473 l 512 403 m 136 971 l 199 1040 l 388 863 l 345 810 l 136 971 m 356 971 l 418 1040 l 607 863 l 564 810 l 356 971 z "},"ë":{"ha":743,"x_min":75,"x_max":671,"o":"m 664 185 q 638 95 654 128 q 625 73 630 79 q 614 61 620 68 q 538 10 589 31 q 382 -16 474 -16 q 224 10 288 -16 q 151 60 178 29 q 102 147 120 97 q 75 342 75 222 q 103 537 75 461 q 152 622 121 586 q 227 674 177 652 q 380 701 290 701 q 546 669 480 701 q 618 609 592 646 q 652 541 637 583 q 671 401 671 482 l 671 387 q 670 365 670 380 l 670 342 q 669 326 669 334 l 180 326 q 222 131 180 199 q 264 87 239 101 q 328 69 281 77 q 385 66 353 66 q 486 78 446 66 q 530 97 514 87 q 559 135 548 109 q 580 208 571 160 l 664 185 m 512 403 l 566 399 q 543 535 561 484 q 511 585 530 571 q 459 608 492 598 q 377 618 426 618 q 275 602 317 618 q 229 574 245 591 q 201 523 211 555 q 182 403 184 473 l 512 403 m 229 977 q 281 960 267 977 q 292 909 292 945 q 279 860 292 875 q 229 845 266 845 q 180 861 195 845 q 166 909 166 876 q 180 960 166 944 q 229 977 193 977 m 512 977 q 564 960 551 977 q 576 909 576 945 q 563 860 576 875 q 512 845 549 845 q 464 861 478 845 q 450 909 450 876 q 463 960 450 944 q 512 977 477 977 z "},"è":{"ha":743,"x_min":75,"x_max":671,"o":"m 664 185 q 638 95 654 128 q 625 73 630 79 q 614 61 620 68 q 538 10 589 31 q 382 -16 474 -16 q 224 10 288 -16 q 151 60 178 29 q 102 147 120 97 q 75 342 75 222 q 103 537 75 461 q 152 622 121 586 q 227 674 177 652 q 380 701 290 701 q 546 669 480 701 q 618 609 592 646 q 652 541 637 583 q 671 401 671 482 l 671 387 q 670 365 670 380 l 670 342 q 669 326 669 334 l 180 326 q 222 131 180 199 q 264 87 239 101 q 328 69 281 77 q 385 66 353 66 q 486 78 446 66 q 530 97 514 87 q 559 135 548 109 q 580 208 571 160 l 664 185 m 512 403 l 566 399 q 543 535 561 484 q 511 585 530 571 q 459 608 492 598 q 377 618 426 618 q 275 602 317 618 q 229 574 245 591 q 201 523 211 555 q 182 403 184 473 l 512 403 m 349 1078 l 512 822 l 449 800 l 231 1028 l 349 1078 z "},"ȇ":{"ha":743,"x_min":75,"x_max":671,"o":"m 664 185 q 638 95 654 128 q 625 73 630 79 q 614 61 620 68 q 538 10 589 31 q 382 -16 474 -16 q 224 10 288 -16 q 151 60 178 29 q 102 147 120 97 q 75 342 75 222 q 103 537 75 461 q 152 622 121 586 q 227 674 177 652 q 380 701 290 701 q 546 669 480 701 q 618 609 592 646 q 652 541 637 583 q 671 401 671 482 l 671 387 q 670 365 670 380 l 670 342 q 669 326 669 334 l 180 326 q 222 131 180 199 q 264 87 239 101 q 328 69 281 77 q 385 66 353 66 q 486 78 446 66 q 530 97 514 87 q 559 135 548 109 q 580 208 571 160 l 664 185 m 512 403 l 566 399 q 543 535 561 484 q 511 585 530 571 q 459 608 492 598 q 377 618 426 618 q 275 602 317 618 q 229 574 245 591 q 201 523 211 555 q 182 403 184 473 l 512 403 m 138 812 q 163 895 142 856 q 215 962 183 933 q 287 1007 247 991 q 371 1023 328 1023 q 456 1007 415 1023 q 528 962 496 991 q 581 895 560 933 q 606 812 601 856 l 530 812 q 475 907 519 869 q 426 934 453 924 q 371 944 399 944 q 316 934 342 944 q 268 907 290 924 q 231 864 246 888 q 211 812 216 840 l 138 812 z "},"f":{"ha":473,"x_min":45,"x_max":490,"o":"m 427 610 l 279 610 l 279 0 l 175 0 l 175 610 l 45 610 l 45 686 l 175 686 l 175 770 q 189 901 175 857 q 212 943 197 928 l 225 954 q 292 983 247 972 q 352 989 316 989 q 422 978 391 989 q 443 968 434 974 q 461 951 451 962 q 490 903 480 931 l 434 855 q 410 886 421 878 q 388 899 400 895 q 353 903 373 903 q 300 892 317 903 q 291 882 293 887 q 285 867 288 880 q 281 831 282 857 q 279 761 279 807 l 279 686 l 427 686 l 427 610 z "},"g":{"ha":787,"x_min":78,"x_max":682,"o":"m 576 102 q 498 24 544 50 q 350 -8 439 -8 q 202 22 263 -8 q 135 75 158 42 q 98 157 111 105 q 78 344 78 228 q 98 537 78 465 q 136 618 111 587 q 205 672 158 650 q 354 701 268 701 q 524 652 457 701 q 560 618 547 635 q 589 577 573 602 l 602 686 l 682 686 l 682 42 q 655 -129 682 -60 q 609 -203 637 -175 q 536 -248 579 -232 q 381 -273 472 -273 q 236 -253 298 -273 q 172 -225 195 -241 q 138 -188 154 -214 q 110 -102 114 -151 l 169 -70 q 212 -144 191 -119 q 230 -159 222 -155 q 305 -184 249 -176 q 380 -189 332 -189 q 490 -172 442 -189 q 541 -140 527 -159 l 552 -125 q 574 -43 566 -102 q 577 38 578 -9 l 576 102 m 378 618 q 267 601 306 618 q 222 568 237 589 q 197 508 206 547 q 184 351 184 452 q 197 192 184 245 q 222 129 207 150 q 267 95 238 106 q 380 78 310 78 q 492 94 450 78 q 537 127 522 106 q 564 186 554 150 q 578 336 578 241 q 564 504 578 439 q 536 571 553 551 q 515 589 526 581 q 489 602 505 596 q 378 618 446 618 z "},"h":{"ha":789,"x_min":106,"x_max":688,"o":"m 106 977 l 210 977 l 210 600 q 292 669 243 644 q 442 701 355 701 q 579 678 524 701 q 639 639 616 663 q 658 611 650 626 q 672 570 666 595 q 688 385 688 503 l 688 0 l 583 0 l 583 418 q 572 528 583 489 q 563 553 567 546 q 558 561 560 557 q 555 566 557 564 q 517 600 543 588 q 410 616 479 616 q 290 597 336 616 q 241 559 256 583 q 222 515 228 540 q 210 399 210 469 l 210 0 l 106 0 l 106 977 z "},"i":{"ha":319,"x_min":96,"x_max":222,"o":"m 159 929 q 211 912 197 929 q 222 862 222 897 q 217 827 222 840 q 198 809 212 814 q 159 804 184 804 q 110 817 124 804 q 96 862 96 829 q 110 913 96 897 q 159 929 123 929 m 212 0 l 107 0 l 107 686 l 212 686 l 212 0 z "},"ı":{"ha":319,"x_min":107,"x_max":212,"o":"m 212 0 l 107 0 l 107 686 l 212 686 l 212 0 z "},"í":{"ha":319,"x_min":20,"x_max":300,"o":"m 212 0 l 107 0 l 107 686 l 212 686 l 212 0 m 84 800 l 20 822 l 182 1078 l 300 1028 l 84 800 z "},"î":{"ha":319,"x_min":-9,"x_max":330,"o":"m 212 0 l 107 0 l 107 686 l 212 686 l 212 0 m 330 770 l 232 770 l 162 958 l 89 770 l -9 770 l 111 998 l 209 998 l 330 770 z "},"ȉ":{"ha":319,"x_min":-75,"x_max":395,"o":"m 212 0 l 107 0 l 107 686 l 212 686 l 212 0 m -75 971 l -13 1040 l 176 863 l 133 810 l -75 971 m 144 971 l 207 1040 l 395 863 l 353 810 l 144 971 z "},"ï":{"ha":319,"x_min":-43,"x_max":366,"o":"m 212 0 l 107 0 l 107 686 l 212 686 l 212 0 m 19 846 q 71 829 58 846 q 83 779 83 814 q 70 729 83 744 q 19 714 56 714 q -29 730 -15 714 q -43 779 -43 745 q -30 829 -43 813 q 19 846 -16 846 m 302 846 q 355 829 341 846 q 366 779 366 814 q 353 729 366 744 q 302 714 340 714 q 254 730 269 714 q 240 779 240 745 q 254 829 240 813 q 302 846 267 846 z "},"ì":{"ha":319,"x_min":20,"x_max":301,"o":"m 212 0 l 107 0 l 107 686 l 212 686 l 212 0 m 138 1078 l 301 822 l 238 800 l 20 1028 l 138 1078 z "},"ȋ":{"ha":319,"x_min":-74,"x_max":394,"o":"m 212 0 l 107 0 l 107 686 l 212 686 l 212 0 m -74 812 q -49 895 -69 856 q 3 962 -28 933 q 76 1007 35 991 q 159 1023 116 1023 q 244 1007 203 1023 q 317 962 285 991 q 369 895 349 933 q 394 812 389 856 l 319 812 q 263 907 307 869 q 215 934 241 924 q 159 944 188 944 q 104 934 131 944 q 56 907 78 924 q 20 864 35 888 q -1 812 5 840 l -74 812 z "},"j":{"ha":318,"x_min":-172,"x_max":221,"o":"m 157 929 q 210 912 196 929 q 221 862 221 897 q 216 827 221 840 q 197 809 210 814 q 157 804 183 804 q 109 817 123 804 q 95 862 95 829 q 109 913 95 897 q 157 929 122 929 m 107 8 q 99 -98 107 -67 q 91 -122 96 -115 q 77 -135 87 -129 q 7 -149 53 -149 q -51 -140 -28 -149 q -67 -133 -61 -137 q -79 -119 -73 -128 q -98 -72 -92 -98 l -172 -88 q -149 -169 -169 -136 q -129 -192 -140 -183 q -100 -209 -119 -201 q 9 -225 -58 -225 q 136 -197 83 -225 q 171 -169 159 -184 q 192 -129 184 -153 q 211 8 211 -77 l 211 686 l 107 686 l 107 8 z "},"k":{"ha":675,"x_min":107,"x_max":644,"o":"m 107 0 l 107 977 l 211 977 l 211 351 l 286 429 l 523 699 l 613 660 l 376 401 l 644 18 l 553 -14 l 292 355 l 211 275 l 211 0 l 107 0 z "},"l":{"ha":328,"x_min":112,"x_max":216,"o":"m 112 0 l 112 977 l 216 977 l 216 0 l 112 0 z "},"ł":{"ha":391,"x_min":-2,"x_max":423,"o":"m 132 0 l 132 398 l 40 347 l -2 421 l 132 496 l 132 977 l 235 977 l 235 554 l 378 635 l 423 562 l 235 456 l 235 0 l 132 0 z "},"m":{"ha":1173,"x_min":107,"x_max":1072,"o":"m 1038 617 q 1067 505 1056 587 q 1072 397 1072 460 l 1072 0 l 968 0 l 968 420 q 954 544 968 500 q 941 570 948 561 q 925 587 934 580 q 896 606 911 600 q 821 616 863 616 q 720 601 758 616 q 679 572 695 591 q 665 550 671 561 q 654 522 659 540 q 642 397 642 475 l 642 0 l 537 0 l 537 409 q 523 542 537 494 q 494 588 513 572 l 484 596 q 435 614 469 607 q 389 617 414 617 q 298 604 332 617 q 275 592 284 599 q 267 586 273 591 q 254 575 260 581 q 242 561 248 569 q 215 462 222 534 q 211 366 211 425 l 211 0 l 107 0 l 107 686 l 193 686 l 201 586 q 237 628 222 612 q 273 659 251 643 q 419 701 336 701 q 545 676 494 701 q 599 632 581 658 q 625 581 614 612 q 640 601 629 586 q 665 630 652 616 q 694 656 679 644 q 850 701 757 701 q 1002 659 946 701 q 1038 617 1026 641 z "},"n":{"ha":787,"x_min":107,"x_max":686,"o":"m 646 616 q 680 503 667 582 q 686 398 686 462 l 686 0 l 581 0 l 581 418 q 570 528 581 484 q 561 553 565 546 q 554 564 559 555 q 538 583 549 572 q 473 611 521 602 q 412 616 450 616 q 290 597 336 616 q 241 558 257 583 q 220 499 227 536 q 212 370 212 451 l 212 0 l 107 0 l 107 686 l 193 686 l 201 585 q 282 661 234 632 q 445 701 349 701 q 606 659 545 701 q 646 616 633 639 z "},"ñ":{"ha":787,"x_min":107,"x_max":686,"o":"m 646 616 q 680 503 667 582 q 686 398 686 462 l 686 0 l 581 0 l 581 418 q 570 528 581 484 q 561 553 565 546 q 554 564 559 555 q 538 583 549 572 q 473 611 521 602 q 412 616 450 616 q 290 597 336 616 q 241 558 257 583 q 220 499 227 536 q 212 370 212 451 l 212 0 l 107 0 l 107 686 l 193 686 l 201 585 q 282 661 234 632 q 445 701 349 701 q 606 659 545 701 q 646 616 633 639 m 208 852 q 243 951 208 921 q 320 977 272 977 q 358 970 338 977 q 406 949 378 962 q 419 942 413 945 q 430 937 425 939 l 444 929 q 469 920 462 920 q 496 934 488 920 q 505 977 504 948 l 581 977 q 549 878 581 911 q 474 851 522 851 q 433 858 452 851 q 391 878 413 864 q 346 904 358 898 q 321 911 333 911 q 285 852 285 911 l 208 852 z "},"o":{"ha":782,"x_min":74,"x_max":707,"o":"m 389 701 q 555 672 482 701 q 635 619 608 650 q 682 535 666 585 q 707 345 707 460 q 682 153 707 229 q 635 66 665 100 q 555 13 608 34 q 389 -16 484 -16 q 225 14 294 -16 q 146 66 174 35 q 99 153 116 100 q 74 343 74 229 q 99 534 74 457 q 145 618 115 584 q 226 672 173 650 q 389 701 298 701 m 389 616 q 271 600 315 616 q 220 564 237 585 q 194 502 203 541 q 180 340 180 446 q 194 183 180 239 q 221 121 204 142 q 273 87 238 100 q 393 69 317 69 q 511 87 465 69 q 561 122 544 100 q 588 184 578 145 q 601 342 601 242 q 587 505 601 446 q 558 567 576 545 q 507 600 537 589 q 389 616 460 616 z "},"ó":{"ha":782,"x_min":74,"x_max":707,"o":"m 389 701 q 555 672 482 701 q 635 619 608 650 q 682 535 666 585 q 707 345 707 460 q 682 153 707 229 q 635 66 665 100 q 555 13 608 34 q 389 -16 484 -16 q 225 14 294 -16 q 146 66 174 35 q 99 153 116 100 q 74 343 74 229 q 99 534 74 457 q 145 618 115 584 q 226 672 173 650 q 389 701 298 701 m 389 616 q 271 600 315 616 q 220 564 237 585 q 194 502 203 541 q 180 340 180 446 q 194 183 180 239 q 221 121 204 142 q 273 87 238 100 q 393 69 317 69 q 511 87 465 69 q 561 122 544 100 q 588 184 578 145 q 601 342 601 242 q 587 505 601 446 q 558 567 576 545 q 507 600 537 589 q 389 616 460 616 m 315 800 l 251 822 l 413 1078 l 530 1028 l 315 800 z "},"ô":{"ha":782,"x_min":74,"x_max":707,"o":"m 389 701 q 555 672 482 701 q 635 619 608 650 q 682 535 666 585 q 707 345 707 460 q 682 153 707 229 q 635 66 665 100 q 555 13 608 34 q 389 -16 484 -16 q 225 14 294 -16 q 146 66 174 35 q 99 153 116 100 q 74 343 74 229 q 99 534 74 457 q 145 618 115 584 q 226 672 173 650 q 389 701 298 701 m 389 616 q 271 600 315 616 q 220 564 237 585 q 194 502 203 541 q 180 340 180 446 q 194 183 180 239 q 221 121 204 142 q 273 87 238 100 q 393 69 317 69 q 511 87 465 69 q 561 122 544 100 q 588 184 578 145 q 601 342 601 242 q 587 505 601 446 q 558 567 576 545 q 507 600 537 589 q 389 616 460 616 m 560 770 l 462 770 l 392 958 l 319 770 l 220 770 l 341 998 l 439 998 l 560 770 z "},"ȍ":{"ha":782,"x_min":74,"x_max":707,"o":"m 389 701 q 555 672 482 701 q 635 619 608 650 q 682 535 666 585 q 707 345 707 460 q 682 153 707 229 q 635 66 665 100 q 555 13 608 34 q 389 -16 484 -16 q 225 14 294 -16 q 146 66 174 35 q 99 153 116 100 q 74 343 74 229 q 99 534 74 457 q 145 618 115 584 q 226 672 173 650 q 389 701 298 701 m 389 616 q 271 600 315 616 q 220 564 237 585 q 194 502 203 541 q 180 340 180 446 q 194 183 180 239 q 221 121 204 142 q 273 87 238 100 q 393 69 317 69 q 511 87 465 69 q 561 122 544 100 q 588 184 578 145 q 601 342 601 242 q 587 505 601 446 q 558 567 576 545 q 507 600 537 589 q 389 616 460 616 m 155 971 l 218 1040 l 407 863 l 363 810 l 155 971 m 375 971 l 437 1040 l 626 863 l 583 810 l 375 971 z "},"ö":{"ha":782,"x_min":74,"x_max":707,"o":"m 389 701 q 555 672 482 701 q 635 619 608 650 q 682 535 666 585 q 707 345 707 460 q 682 153 707 229 q 635 66 665 100 q 555 13 608 34 q 389 -16 484 -16 q 225 14 294 -16 q 146 66 174 35 q 99 153 116 100 q 74 343 74 229 q 99 534 74 457 q 145 618 115 584 q 226 672 173 650 q 389 701 298 701 m 389 616 q 271 600 315 616 q 220 564 237 585 q 194 502 203 541 q 180 340 180 446 q 194 183 180 239 q 221 121 204 142 q 273 87 238 100 q 393 69 317 69 q 511 87 465 69 q 561 122 544 100 q 588 184 578 145 q 601 342 601 242 q 587 505 601 446 q 558 567 576 545 q 507 600 537 589 q 389 616 460 616 m 248 977 q 300 960 287 977 q 312 909 312 945 q 299 860 312 875 q 248 845 286 845 q 200 861 214 845 q 186 909 186 876 q 199 960 186 944 q 248 977 213 977 m 532 977 q 584 960 570 977 q 595 909 595 945 q 582 860 595 875 q 532 845 569 845 q 484 861 498 845 q 469 909 469 876 q 483 960 469 944 q 532 977 496 977 z "},"ò":{"ha":782,"x_min":74,"x_max":707,"o":"m 389 701 q 555 672 482 701 q 635 619 608 650 q 682 535 666 585 q 707 345 707 460 q 682 153 707 229 q 635 66 665 100 q 555 13 608 34 q 389 -16 484 -16 q 225 14 294 -16 q 146 66 174 35 q 99 153 116 100 q 74 343 74 229 q 99 534 74 457 q 145 618 115 584 q 226 672 173 650 q 389 701 298 701 m 389 616 q 271 600 315 616 q 220 564 237 585 q 194 502 203 541 q 180 340 180 446 q 194 183 180 239 q 221 121 204 142 q 273 87 238 100 q 393 69 317 69 q 511 87 465 69 q 561 122 544 100 q 588 184 578 145 q 601 342 601 242 q 587 505 601 446 q 558 567 576 545 q 507 600 537 589 q 389 616 460 616 m 368 1078 l 531 822 l 468 800 l 250 1028 l 368 1078 z "},"ȏ":{"ha":782,"x_min":74,"x_max":707,"o":"m 389 701 q 555 672 482 701 q 635 619 608 650 q 682 535 666 585 q 707 345 707 460 q 682 153 707 229 q 635 66 665 100 q 555 13 608 34 q 389 -16 484 -16 q 225 14 294 -16 q 146 66 174 35 q 99 153 116 100 q 74 343 74 229 q 99 534 74 457 q 145 618 115 584 q 226 672 173 650 q 389 701 298 701 m 389 616 q 271 600 315 616 q 220 564 237 585 q 194 502 203 541 q 180 340 180 446 q 194 183 180 239 q 221 121 204 142 q 273 87 238 100 q 393 69 317 69 q 511 87 465 69 q 561 122 544 100 q 588 184 578 145 q 601 342 601 242 q 587 505 601 446 q 558 567 576 545 q 507 600 537 589 q 389 616 460 616 m 157 812 q 182 895 161 856 q 234 962 202 933 q 306 1007 266 991 q 390 1023 347 1023 q 475 1007 434 1023 q 547 962 515 991 q 600 895 579 933 q 625 812 620 856 l 549 812 q 494 907 538 869 q 445 934 472 924 q 390 944 418 944 q 335 934 361 944 q 287 907 309 924 q 250 864 265 888 q 230 812 235 840 l 157 812 z "},"ø":{"ha":782,"x_min":74,"x_max":707,"o":"m 389 701 q 435 699 414 701 l 457 795 l 535 783 l 513 686 q 588 655 557 673 q 635 619 619 637 q 682 535 666 585 q 707 345 707 460 q 682 153 707 229 q 635 66 665 100 q 555 13 608 34 q 389 -17 484 -17 q 355 -16 376 -17 l 336 -102 l 259 -90 l 278 -5 q 196 26 229 7 q 146 66 163 45 q 99 153 116 100 q 74 343 74 229 q 99 534 74 457 q 145 618 115 584 q 226 672 173 650 q 389 701 298 701 m 389 616 q 271 600 315 616 q 220 564 237 585 q 194 502 203 541 q 180 340 180 446 q 194 183 180 239 q 221 121 204 142 q 296 79 245 92 l 417 616 q 404 616 408 616 l 389 616 m 558 567 q 494 604 538 591 l 374 69 l 393 69 q 511 87 465 69 q 561 122 544 100 q 588 184 578 145 q 601 342 601 242 q 587 505 601 446 q 558 567 576 545 z "},"õ":{"ha":782,"x_min":74,"x_max":707,"o":"m 389 701 q 555 672 482 701 q 635 619 608 650 q 682 535 666 585 q 707 345 707 460 q 682 153 707 229 q 635 66 665 100 q 555 13 608 34 q 389 -16 484 -16 q 225 14 294 -16 q 146 66 174 35 q 99 153 116 100 q 74 343 74 229 q 99 534 74 457 q 145 618 115 584 q 226 672 173 650 q 389 701 298 701 m 389 616 q 271 600 315 616 q 220 564 237 585 q 194 502 203 541 q 180 340 180 446 q 194 183 180 239 q 221 121 204 142 q 273 87 238 100 q 393 69 317 69 q 511 87 465 69 q 561 122 544 100 q 588 184 578 145 q 601 342 601 242 q 587 505 601 446 q 558 567 576 545 q 507 600 537 589 q 389 616 460 616 m 204 852 q 239 951 204 921 q 316 977 268 977 q 354 970 334 977 q 402 949 374 962 q 415 942 409 945 q 426 937 421 939 l 440 929 q 465 920 458 920 q 492 934 484 920 q 501 977 500 948 l 577 977 q 545 878 577 911 q 470 851 517 851 q 429 858 448 851 q 387 878 409 864 q 341 904 354 898 q 317 911 329 911 q 281 852 281 911 l 204 852 z "},"œ":{"ha":1249,"x_min":74,"x_max":1176,"o":"m 1168 186 q 1141 90 1160 130 q 1110 45 1127 61 q 1080 23 1096 33 q 1042 4 1065 13 q 889 -21 977 -21 q 736 7 800 -21 q 673 52 700 23 q 659 68 665 60 l 645 87 q 616 52 635 71 q 545 7 583 23 q 389 -21 479 -21 q 227 9 297 -21 q 146 62 174 31 q 99 147 115 97 q 74 338 74 224 q 99 533 74 454 q 144 621 115 587 q 176 649 156 635 q 224 675 196 663 q 386 705 293 705 q 548 677 480 705 q 620 633 591 660 q 646 600 634 618 q 684 644 662 624 q 751 683 714 669 q 890 705 807 705 q 1038 680 976 705 q 1101 640 1073 665 q 1127 608 1114 628 q 1151 560 1141 587 q 1176 403 1176 492 l 1176 389 l 1175 342 q 1174 326 1174 324 l 698 326 q 716 170 699 229 q 749 106 730 123 q 804 79 767 90 q 895 68 840 68 q 987 78 948 68 q 1016 88 1005 83 q 1028 94 1026 93 q 1059 130 1046 103 q 1084 217 1074 162 l 1168 186 m 1019 404 l 1070 399 q 1055 523 1066 479 q 1031 576 1044 561 q 987 605 1013 595 q 886 621 944 621 q 796 609 831 621 q 750 585 766 599 q 720 534 732 570 q 701 404 701 484 l 1019 404 m 387 617 q 273 600 315 617 q 225 564 241 587 q 210 537 216 551 q 197 501 203 524 q 183 342 183 443 q 197 184 183 242 q 225 121 207 144 q 273 86 242 99 q 387 68 313 68 q 501 86 458 68 q 549 121 534 99 q 575 182 565 142 q 588 336 588 239 q 575 501 588 441 q 549 565 566 541 q 500 600 534 586 q 387 617 457 617 z "},"p":{"ha":788,"x_min":107,"x_max":710,"o":"m 200 570 q 266 652 226 622 q 439 701 333 701 q 587 672 524 701 q 654 618 632 650 q 675 585 666 603 q 691 539 684 566 q 710 347 710 467 q 690 151 710 230 q 652 67 678 104 q 583 14 625 33 q 433 -16 519 -16 q 286 23 344 -16 q 246 57 262 38 q 212 102 229 76 l 212 -257 l 107 -257 l 107 686 l 189 686 l 200 570 m 410 69 q 522 85 482 69 q 566 121 551 98 q 591 186 581 144 q 604 351 604 248 q 591 507 604 450 q 566 566 581 544 q 524 598 553 586 q 413 615 484 615 q 298 597 340 615 q 253 563 269 585 q 225 503 235 538 q 211 346 211 446 q 237 178 211 243 q 300 94 260 121 q 307 89 301 94 q 327 79 313 84 q 410 69 356 69 z "},"þ":{"ha":788,"x_min":107,"x_max":710,"o":"m 107 977 l 212 977 l 212 593 q 244 632 229 616 q 283 663 260 649 q 438 699 342 699 q 579 673 520 699 q 644 631 618 656 q 688 546 672 602 q 710 343 710 471 q 693 160 710 231 q 680 117 687 134 q 663 83 672 100 q 635 49 653 66 q 592 18 617 32 q 437 -16 530 -16 q 271 28 332 -16 q 236 59 249 43 q 212 93 223 75 l 212 -204 l 107 -204 l 107 977 m 413 616 q 299 599 342 616 q 253 565 270 587 q 225 504 235 541 q 211 347 211 446 q 224 186 211 255 q 235 144 229 157 q 247 120 241 128 q 266 102 253 112 q 344 73 291 81 q 412 68 370 68 q 522 85 484 68 q 566 119 551 98 q 591 180 582 141 q 604 338 604 237 q 591 502 604 442 q 567 566 582 543 q 524 600 553 588 q 413 616 483 616 z "},"q":{"ha":788,"x_min":78,"x_max":681,"o":"m 576 -257 l 576 109 q 485 10 545 40 q 352 -16 433 -16 q 197 18 259 -16 q 154 49 172 32 q 126 83 136 66 q 109 117 117 100 q 96 161 102 134 q 78 343 78 235 q 95 526 78 456 q 108 566 101 551 q 125 602 115 582 q 153 636 135 618 q 197 667 171 654 q 353 701 262 701 q 526 650 458 701 q 563 614 549 632 q 588 575 576 595 l 600 686 l 681 686 l 681 -257 l 576 -257 m 376 69 q 490 87 448 70 q 536 121 520 100 q 564 184 554 145 q 578 341 578 244 q 568 489 578 428 q 559 526 564 513 q 553 544 555 540 q 490 600 533 583 q 376 617 447 617 q 266 600 307 617 q 221 564 237 587 q 196 504 204 541 q 183 347 183 448 q 195 187 183 243 q 220 122 205 144 q 264 87 237 98 q 376 69 306 69 z "},"r":{"ha":473,"x_min":107,"x_max":436,"o":"m 205 579 q 294 666 248 637 q 423 701 350 701 l 436 701 l 436 597 l 431 597 q 427 598 429 597 l 421 598 q 298 574 351 598 q 208 473 230 542 l 208 0 l 107 0 l 107 686 l 201 686 l 205 579 z "},"ȑ":{"ha":473,"x_min":2,"x_max":473,"o":"m 205 579 q 294 666 248 637 q 423 701 350 701 l 436 701 l 436 597 l 431 597 q 427 598 429 597 l 421 598 q 298 574 351 598 q 208 473 230 542 l 208 0 l 107 0 l 107 686 l 201 686 l 205 579 m 2 971 l 64 1040 l 254 863 l 210 810 l 2 971 m 222 971 l 284 1040 l 473 863 l 430 810 l 222 971 z "},"ȓ":{"ha":473,"x_min":3,"x_max":471,"o":"m 205 579 q 294 666 248 637 q 423 701 350 701 l 436 701 l 436 597 l 431 597 q 427 598 429 597 l 421 598 q 298 574 351 598 q 208 473 230 542 l 208 0 l 107 0 l 107 686 l 201 686 l 205 579 m 3 812 q 28 895 8 856 q 81 962 49 933 q 153 1007 113 991 q 237 1023 193 1023 q 321 1007 281 1023 q 394 962 362 991 q 446 895 426 933 q 471 812 467 856 l 396 812 q 340 907 385 869 q 292 934 319 924 q 237 944 265 944 q 182 934 208 944 q 134 907 155 924 q 97 864 112 888 q 77 812 82 840 l 3 812 z "},"s":{"ha":652,"x_min":66,"x_max":587,"o":"m 151 190 q 172 127 159 151 q 208 89 186 102 q 256 71 228 76 q 328 66 285 66 q 418 80 378 66 q 462 104 448 90 q 477 131 471 112 q 484 176 484 151 q 477 222 484 204 q 454 252 470 240 q 415 272 439 264 q 353 290 391 281 q 230 327 275 311 q 153 362 185 342 q 97 420 115 386 q 78 508 78 455 q 95 588 78 551 q 125 633 106 614 q 193 676 151 658 q 328 701 255 701 q 516 644 455 701 q 564 542 557 605 l 485 507 q 426 602 470 577 q 384 615 407 612 q 325 618 360 618 q 241 606 279 618 q 199 583 218 598 q 184 559 191 575 q 177 518 177 543 q 185 476 178 492 q 206 448 191 460 q 246 428 221 437 q 315 408 271 418 q 370 393 358 395 q 489 351 441 375 q 574 262 549 319 q 587 189 587 232 q 570 102 587 141 q 534 51 555 68 q 467 10 506 26 q 322 -16 406 -16 q 132 33 192 -16 q 91 84 106 55 q 66 155 75 114 l 151 190 z "},"š":{"ha":652,"x_min":66,"x_max":587,"o":"m 151 190 q 172 127 159 151 q 208 89 186 102 q 256 71 228 76 q 328 66 285 66 q 418 80 378 66 q 462 104 448 90 q 477 131 471 112 q 484 176 484 151 q 477 222 484 204 q 454 252 470 240 q 415 272 439 264 q 353 290 391 281 q 230 327 275 311 q 153 362 185 342 q 97 420 115 386 q 78 508 78 455 q 95 588 78 551 q 125 633 106 614 q 193 676 151 658 q 328 701 255 701 q 516 644 455 701 q 564 542 557 605 l 485 507 q 426 602 470 577 q 384 615 407 612 q 325 618 360 618 q 241 606 279 618 q 199 583 218 598 q 184 559 191 575 q 177 518 177 543 q 185 476 178 492 q 206 448 191 460 q 246 428 221 437 q 315 408 271 418 q 370 393 358 395 q 489 351 441 375 q 574 262 549 319 q 587 189 587 232 q 570 102 587 141 q 534 51 555 68 q 467 10 506 26 q 322 -16 406 -16 q 132 33 192 -16 q 91 84 106 55 q 66 155 75 114 l 151 190 m 328 810 l 397 998 l 496 998 l 374 770 l 277 770 l 156 998 l 254 998 l 328 810 z "},"ș":{"ha":652,"x_min":66,"x_max":587,"o":"m 151 190 q 172 127 159 151 q 208 89 186 102 q 256 71 228 76 q 328 66 285 66 q 418 80 378 66 q 462 104 448 90 q 477 131 471 112 q 484 176 484 151 q 477 222 484 204 q 454 252 470 240 q 415 272 439 264 q 353 290 391 281 q 230 327 275 311 q 153 362 185 342 q 97 420 115 386 q 78 508 78 455 q 95 588 78 551 q 125 633 106 614 q 193 676 151 658 q 328 701 255 701 q 516 644 455 701 q 564 542 557 605 l 485 507 q 426 602 470 577 q 384 615 407 612 q 325 618 360 618 q 241 606 279 618 q 199 583 218 598 q 184 559 191 575 q 177 518 177 543 q 185 476 178 492 q 206 448 191 460 q 246 428 221 437 q 315 408 271 418 q 370 393 358 395 q 489 351 441 375 q 574 262 549 319 q 587 189 587 232 q 570 102 587 141 q 534 51 555 68 q 467 10 506 26 q 322 -16 406 -16 q 132 33 192 -16 q 91 84 106 55 q 66 155 75 114 l 151 190 m 258 -63 l 380 -63 l 380 -193 q 342 -295 380 -248 q 283 -348 319 -325 l 254 -307 l 271 -287 q 306 -231 294 -259 q 312 -196 312 -214 l 258 -196 l 258 -63 z "},"ß":{"ha":831,"x_min":106,"x_max":761,"o":"m 481 -16 q 368 10 412 -16 q 292 91 323 35 l 340 125 q 385 90 357 101 q 448 79 414 79 l 481 79 q 594 99 558 79 q 641 162 630 119 q 652 291 652 205 q 614 461 652 404 q 481 519 576 519 l 360 519 l 360 597 l 481 597 q 567 637 543 597 q 591 755 591 677 q 574 857 591 824 q 518 900 557 889 q 399 911 479 911 q 281 898 321 911 q 226 849 242 885 q 210 737 210 812 l 210 0 l 106 0 l 106 749 q 137 899 106 845 q 232 976 168 953 q 399 998 295 998 q 565 976 500 998 q 665 901 631 954 q 699 758 699 848 q 666 625 699 680 q 570 562 632 570 q 681 517 640 549 q 742 430 723 485 q 761 293 761 376 q 733 116 761 184 q 644 17 705 49 q 481 -16 583 -16 z "},"t":{"ha":515,"x_min":41,"x_max":490,"o":"m 258 937 l 258 686 l 422 686 l 422 608 l 258 608 l 258 195 q 265 108 258 132 q 273 88 269 94 q 284 78 277 82 q 332 69 300 69 q 385 74 368 69 q 399 79 394 76 q 409 91 404 83 q 429 149 422 113 l 490 113 q 469 37 485 66 q 453 17 463 25 q 427 1 444 9 q 333 -16 389 -16 q 231 3 272 -16 q 203 19 214 10 q 187 35 192 27 q 166 87 175 55 q 153 212 153 134 l 153 608 l 41 608 l 41 686 l 161 686 l 161 904 l 258 937 z "},"ț":{"ha":515,"x_min":41,"x_max":490,"o":"m 258 -63 l 380 -63 l 380 -193 q 342 -295 380 -248 q 283 -348 319 -325 l 254 -307 l 271 -287 q 306 -231 294 -259 q 312 -196 312 -214 l 258 -196 l 258 -63 m 258 937 l 258 686 l 422 686 l 422 608 l 258 608 l 258 195 q 265 108 258 132 q 273 88 269 94 q 284 78 277 82 q 332 69 300 69 q 385 74 368 69 q 399 79 394 76 q 409 91 404 83 q 429 149 422 113 l 490 113 q 469 37 485 66 q 453 17 463 25 q 427 1 444 9 q 333 -16 389 -16 q 231 3 272 -16 q 203 19 214 10 q 187 35 192 27 q 166 87 175 55 q 153 212 153 134 l 153 608 l 41 608 l 41 686 l 161 686 l 161 904 l 258 937 z "},"u":{"ha":785,"x_min":101,"x_max":677,"o":"m 101 686 l 205 686 l 205 273 q 215 161 205 201 q 224 136 219 144 q 231 122 226 132 q 269 87 242 99 q 371 69 305 69 q 485 86 441 69 q 532 117 515 98 q 559 165 550 135 q 574 286 574 210 l 574 686 l 677 686 l 677 0 l 591 0 l 582 99 q 556 64 570 81 q 517 31 542 47 q 342 -16 448 -16 q 209 7 263 -16 q 149 45 172 22 q 118 103 130 64 q 101 255 101 160 l 101 686 z "},"ú":{"ha":785,"x_min":101,"x_max":677,"o":"m 101 686 l 205 686 l 205 273 q 215 161 205 201 q 224 136 219 144 q 231 122 226 132 q 269 87 242 99 q 371 69 305 69 q 485 86 441 69 q 532 117 515 98 q 559 165 550 135 q 574 286 574 210 l 574 686 l 677 686 l 677 0 l 591 0 l 582 99 q 556 64 570 81 q 517 31 542 47 q 342 -16 448 -16 q 209 7 263 -16 q 149 45 172 22 q 118 103 130 64 q 101 255 101 160 l 101 686 m 314 800 l 250 822 l 412 1078 l 530 1028 l 314 800 z "},"û":{"ha":785,"x_min":101,"x_max":677,"o":"m 101 686 l 205 686 l 205 273 q 215 161 205 201 q 224 136 219 144 q 231 122 226 132 q 269 87 242 99 q 371 69 305 69 q 485 86 441 69 q 532 117 515 98 q 559 165 550 135 q 574 286 574 210 l 574 686 l 677 686 l 677 0 l 591 0 l 582 99 q 556 64 570 81 q 517 31 542 47 q 342 -16 448 -16 q 209 7 263 -16 q 149 45 172 22 q 118 103 130 64 q 101 255 101 160 l 101 686 m 560 770 l 462 770 l 392 958 l 319 770 l 220 770 l 341 998 l 439 998 l 560 770 z "},"ȕ":{"ha":785,"x_min":101,"x_max":677,"o":"m 101 686 l 205 686 l 205 273 q 215 161 205 201 q 224 136 219 144 q 231 122 226 132 q 269 87 242 99 q 371 69 305 69 q 485 86 441 69 q 532 117 515 98 q 559 165 550 135 q 574 286 574 210 l 574 686 l 677 686 l 677 0 l 591 0 l 582 99 q 556 64 570 81 q 517 31 542 47 q 342 -16 448 -16 q 209 7 263 -16 q 149 45 172 22 q 118 103 130 64 q 101 255 101 160 l 101 686 m 157 971 l 219 1040 l 408 863 l 365 810 l 157 971 m 376 971 l 439 1040 l 627 863 l 585 810 l 376 971 z "},"ü":{"ha":785,"x_min":101,"x_max":677,"o":"m 101 686 l 205 686 l 205 273 q 215 161 205 201 q 224 136 219 144 q 231 122 226 132 q 269 87 242 99 q 371 69 305 69 q 485 86 441 69 q 532 117 515 98 q 559 165 550 135 q 574 286 574 210 l 574 686 l 677 686 l 677 0 l 591 0 l 582 99 q 556 64 570 81 q 517 31 542 47 q 342 -16 448 -16 q 209 7 263 -16 q 149 45 172 22 q 118 103 130 64 q 101 255 101 160 l 101 686 m 248 977 q 300 960 286 977 q 311 909 311 945 q 298 860 311 875 q 248 845 285 845 q 199 861 214 845 q 185 909 185 876 q 199 960 185 944 q 248 977 212 977 m 531 977 q 583 960 570 977 q 595 909 595 945 q 582 860 595 875 q 531 845 568 845 q 483 861 497 845 q 469 909 469 876 q 482 960 469 944 q 531 977 496 977 z "},"ù":{"ha":785,"x_min":101,"x_max":677,"o":"m 101 686 l 205 686 l 205 273 q 215 161 205 201 q 224 136 219 144 q 231 122 226 132 q 269 87 242 99 q 371 69 305 69 q 485 86 441 69 q 532 117 515 98 q 559 165 550 135 q 574 286 574 210 l 574 686 l 677 686 l 677 0 l 591 0 l 582 99 q 556 64 570 81 q 517 31 542 47 q 342 -16 448 -16 q 209 7 263 -16 q 149 45 172 22 q 118 103 130 64 q 101 255 101 160 l 101 686 m 368 1078 l 531 822 l 468 800 l 250 1028 l 368 1078 z "},"ȗ":{"ha":785,"x_min":101,"x_max":677,"o":"m 101 686 l 205 686 l 205 273 q 215 161 205 201 q 224 136 219 144 q 231 122 226 132 q 269 87 242 99 q 371 69 305 69 q 485 86 441 69 q 532 117 515 98 q 559 165 550 135 q 574 286 574 210 l 574 686 l 677 686 l 677 0 l 591 0 l 582 99 q 556 64 570 81 q 517 31 542 47 q 342 -16 448 -16 q 209 7 263 -16 q 149 45 172 22 q 118 103 130 64 q 101 255 101 160 l 101 686 m 158 812 q 183 895 163 856 q 235 962 203 933 q 308 1007 267 991 q 391 1023 348 1023 q 476 1007 435 1023 q 549 962 517 991 q 601 895 581 933 q 626 812 621 856 l 551 812 q 495 907 539 869 q 447 934 473 924 q 391 944 420 944 q 336 934 363 944 q 288 907 310 924 q 252 864 267 888 q 231 812 237 840 l 158 812 z "},"v":{"ha":656,"x_min":36,"x_max":620,"o":"m 269 0 l 36 686 l 144 686 l 279 272 l 330 96 l 380 272 l 513 686 l 620 686 l 390 0 l 269 0 z "},"w":{"ha":1007,"x_min":40,"x_max":966,"o":"m 237 0 l 40 686 l 149 686 l 256 262 l 298 85 l 334 255 l 446 686 l 561 686 l 672 260 l 712 86 l 755 260 l 859 686 l 966 686 l 770 0 l 651 0 l 536 441 l 503 593 l 468 437 l 356 0 l 237 0 z "},"x":{"ha":656,"x_min":43,"x_max":618,"o":"m 269 357 l 51 673 l 157 696 l 328 441 l 496 696 l 600 673 l 387 358 l 618 12 l 513 -12 l 329 271 l 147 -12 l 43 12 l 269 357 z "},"y":{"ha":785,"x_min":101,"x_max":677,"o":"m 573 87 q 547 53 562 69 q 509 24 532 37 q 342 -16 444 -16 q 209 7 263 -16 q 149 45 172 22 q 118 103 130 64 q 101 255 101 160 l 101 686 l 205 686 l 205 273 q 215 161 205 201 q 224 136 219 144 q 231 122 226 132 q 269 87 242 99 q 371 69 305 69 q 485 86 441 69 q 532 117 515 98 q 559 165 550 135 q 574 286 574 210 l 574 686 l 677 686 l 677 42 q 651 -129 677 -60 q 605 -203 633 -175 q 532 -248 575 -232 q 377 -273 468 -273 q 232 -253 294 -273 q 168 -225 191 -241 q 134 -188 150 -214 q 106 -102 110 -151 l 165 -70 q 208 -144 187 -119 q 226 -159 218 -155 q 301 -184 245 -176 q 376 -189 328 -189 q 486 -172 438 -189 q 537 -140 523 -159 q 547 -125 541 -136 q 569 -43 562 -102 q 573 38 573 -12 l 573 87 z "},"ý":{"ha":785,"x_min":102,"x_max":678,"o":"m 574 87 q 547 53 562 69 q 509 24 532 37 q 343 -16 444 -16 q 210 7 264 -16 q 150 45 172 22 q 119 103 130 64 q 102 255 102 160 l 102 686 l 206 686 l 206 273 q 216 161 206 201 q 224 136 220 144 q 232 122 227 132 q 269 87 243 99 q 372 69 306 69 q 486 86 442 69 q 532 117 516 98 q 560 165 551 135 q 574 286 574 210 l 574 686 l 678 686 l 678 42 q 652 -129 678 -60 q 606 -203 634 -175 q 533 -248 576 -232 q 378 -273 469 -273 q 233 -253 294 -273 q 169 -225 191 -241 q 134 -188 151 -214 q 106 -102 111 -151 l 165 -70 q 209 -144 188 -119 q 227 -159 218 -155 q 302 -184 245 -176 q 377 -189 328 -189 q 487 -172 439 -189 q 538 -140 524 -159 q 548 -125 541 -136 q 570 -43 562 -102 q 574 38 574 -12 l 574 87 m 296 800 l 233 822 l 395 1078 l 512 1028 l 296 800 z "},"ÿ":{"ha":785,"x_min":102,"x_max":678,"o":"m 574 87 q 547 53 562 69 q 509 24 532 37 q 343 -16 444 -16 q 210 7 264 -16 q 150 45 172 22 q 119 103 130 64 q 102 255 102 160 l 102 686 l 206 686 l 206 273 q 216 161 206 201 q 224 136 220 144 q 232 122 227 132 q 269 87 243 99 q 372 69 306 69 q 486 86 442 69 q 532 117 516 98 q 560 165 551 135 q 574 286 574 210 l 574 686 l 678 686 l 678 42 q 652 -129 678 -60 q 606 -203 634 -175 q 533 -248 576 -232 q 378 -273 469 -273 q 233 -253 294 -273 q 169 -225 191 -241 q 134 -188 151 -214 q 106 -102 111 -151 l 165 -70 q 209 -144 188 -119 q 227 -159 218 -155 q 302 -184 245 -176 q 377 -189 328 -189 q 487 -172 439 -189 q 538 -140 524 -159 q 548 -125 541 -136 q 570 -43 562 -102 q 574 38 574 -12 l 574 87 m 273 977 q 325 960 311 977 q 336 909 336 945 q 323 860 336 875 q 273 845 310 845 q 224 861 239 845 q 210 909 210 876 q 224 960 210 944 q 273 977 237 977 m 556 977 q 608 960 595 977 q 620 909 620 945 q 607 860 620 875 q 556 845 593 845 q 508 861 522 845 q 494 909 494 876 q 507 960 494 944 q 556 977 521 977 z "},"z":{"ha":610,"x_min":56,"x_max":545,"o":"m 82 602 l 82 686 l 534 686 l 543 613 l 263 202 l 172 81 l 254 85 l 545 85 l 545 0 l 64 0 l 56 79 l 340 496 l 425 606 l 315 602 l 82 602 z "},"ž":{"ha":610,"x_min":56,"x_max":545,"o":"m 82 602 l 82 686 l 534 686 l 543 613 l 263 202 l 172 81 l 254 85 l 545 85 l 545 0 l 64 0 l 56 79 l 340 496 l 425 606 l 315 602 l 82 602 m 304 810 l 374 998 l 472 998 l 351 770 l 253 770 l 132 998 l 231 998 l 304 810 z "},"ﬁ":{"ha":755,"x_min":45,"x_max":659,"o":"m 543 0 l 543 610 l 279 610 l 279 0 l 175 0 l 175 610 l 45 610 l 45 686 l 175 686 l 175 770 q 187 897 175 849 q 208 943 196 930 l 221 954 q 291 983 243 971 q 352 989 317 989 q 422 978 391 989 q 443 968 434 974 q 461 951 451 962 q 490 903 480 931 l 434 855 q 410 886 421 878 q 388 899 400 895 q 353 903 373 903 q 300 892 317 903 q 291 882 293 887 q 285 867 288 880 q 281 831 282 857 q 279 761 279 807 l 279 686 l 648 686 l 648 0 l 543 0 m 595 929 q 647 912 633 929 q 659 862 659 897 q 653 827 659 840 q 634 809 648 814 q 595 804 621 804 q 546 817 560 804 q 532 862 532 829 q 546 913 532 897 q 595 929 559 929 z "},"ﬂ":{"ha":870,"x_min":45,"x_max":758,"o":"m 427 610 l 279 610 l 279 0 l 175 0 l 175 610 l 45 610 l 45 686 l 175 686 l 175 770 q 189 901 175 857 q 212 943 197 928 l 225 954 q 292 983 247 972 q 352 989 316 989 q 422 978 391 989 q 443 968 434 974 q 461 951 451 962 q 490 903 480 931 l 434 855 q 410 886 421 878 q 388 899 400 895 q 353 903 373 903 q 300 892 317 903 q 291 882 293 887 q 285 867 288 880 q 281 831 282 857 q 279 761 279 807 l 279 686 l 427 686 l 427 610 m 654 0 l 654 977 l 758 977 l 758 0 l 654 0 z "},"ª":{"ha":600,"x_min":71,"x_max":505,"o":"m 87 674 q 113 738 96 717 q 158 768 127 754 q 285 789 205 789 q 412 770 363 789 q 455 734 444 755 q 469 688 464 718 q 475 573 475 647 l 475 388 q 477 359 475 372 q 481 342 478 347 q 489 335 484 336 q 505 334 497 334 l 505 278 q 471 273 490 273 q 422 301 437 278 q 412 343 412 317 q 358 300 394 320 q 241 274 307 274 q 144 291 184 274 q 99 321 113 304 q 81 356 89 334 q 71 422 71 388 q 81 494 71 465 q 98 525 87 513 q 153 561 114 545 q 282 584 205 581 q 321 585 312 585 q 378 587 361 585 q 401 591 390 588 q 394 686 401 659 q 387 702 391 697 q 377 710 383 707 l 368 714 q 326 726 354 722 q 286 728 309 728 q 201 720 231 728 q 183 713 189 718 q 170 700 176 709 q 150 650 155 679 l 87 674 m 401 536 q 378 532 391 533 q 361 530 366 530 q 330 528 355 530 q 282 526 311 528 q 234 520 254 524 q 174 500 193 512 q 159 487 164 493 q 151 467 155 481 q 147 425 147 450 q 151 385 147 401 q 158 363 155 370 q 183 343 167 350 q 260 334 208 334 q 319 341 292 334 q 364 362 346 349 q 391 392 382 375 q 401 429 401 410 l 401 536 z "},"º":{"ha":609,"x_min":70,"x_max":524,"o":"m 296 787 q 415 766 362 787 q 473 728 454 749 q 507 668 495 703 q 524 532 524 615 q 507 393 524 448 q 473 332 494 357 q 415 294 454 309 q 296 273 365 273 q 178 294 227 273 q 121 332 140 310 q 88 393 100 357 q 70 530 70 450 q 88 667 70 611 q 121 728 100 705 q 179 766 140 750 q 296 787 231 787 m 296 726 q 212 714 243 726 q 175 689 186 704 q 156 644 162 672 q 146 528 146 602 q 156 416 146 457 q 176 371 163 385 q 213 347 186 357 q 299 334 244 334 q 383 347 351 334 q 419 372 408 356 q 439 416 431 386 q 448 530 448 458 q 437 647 448 604 q 417 691 430 675 q 380 715 403 707 q 296 726 347 726 z "},"π":{"ha":966,"x_min":22,"x_max":939,"o":"m 785 671 l 785 229 q 792 80 785 136 q 808 0 798 40 l 703 0 q 683 66 690 18 q 675 214 675 118 l 675 671 l 347 671 q 323 438 343 587 q 278 186 305 305 q 220 0 250 62 l 113 0 q 172 196 144 73 q 216 441 199 316 q 239 671 234 574 q 111 665 152 671 q 40 648 68 660 l 22 717 q 109 746 60 737 q 260 757 170 757 l 939 757 l 928 671 l 785 671 z "},"¹":{"ha":380,"x_min":38,"x_max":264,"o":"m 38 781 q 100 820 68 797 q 199 903 144 853 l 264 890 l 264 203 l 185 203 l 185 799 q 119 753 138 765 q 59 716 92 735 l 38 781 z "},"²":{"ha":611,"x_min":77,"x_max":521,"o":"m 95 722 q 94 743 94 728 q 106 801 94 773 q 144 851 119 829 q 215 890 172 876 q 309 903 258 903 q 404 886 361 903 q 473 838 447 869 q 515 704 515 789 q 500 623 515 658 q 456 559 485 588 q 410 519 436 538 q 347 477 385 501 l 328 465 q 264 419 290 439 q 219 379 238 399 q 164 279 180 336 l 521 279 l 521 203 l 77 203 q 101 314 83 267 q 146 399 118 361 q 198 455 169 431 q 278 517 228 480 q 284 521 281 519 q 292 526 288 523 q 349 566 328 551 q 386 599 370 582 q 418 645 408 621 q 429 701 429 669 q 424 756 429 733 q 406 795 419 779 q 366 824 392 814 q 306 833 340 833 q 191 802 231 833 q 163 766 173 787 q 153 718 153 744 q 153 702 153 707 l 95 722 z "},"³":{"ha":617,"x_min":73,"x_max":528,"o":"m 81 765 q 106 823 87 797 q 152 867 125 849 q 300 905 208 905 q 382 893 343 905 q 450 863 421 882 q 515 719 515 816 q 469 610 515 653 q 427 582 450 593 q 381 566 404 570 q 435 548 408 561 q 481 515 461 535 q 528 401 528 469 q 510 304 528 347 q 454 235 492 262 q 281 189 390 189 q 192 201 232 189 q 116 240 146 214 q 84 287 95 259 q 74 346 73 314 l 140 371 q 148 322 140 344 q 171 287 156 300 q 217 263 189 270 q 281 256 245 256 q 401 297 368 256 q 421 338 416 313 q 426 399 426 363 q 409 473 426 446 q 359 515 391 500 q 295 530 331 527 q 206 534 259 534 l 206 600 l 267 600 q 372 625 334 600 q 416 715 416 656 q 385 810 416 783 q 349 830 370 824 q 302 837 327 837 q 238 831 266 837 q 191 810 211 825 q 163 783 175 800 q 145 745 151 766 l 81 765 z "},"⁴":{"ha":568,"x_min":43,"x_max":513,"o":"m 43 437 l 324 888 l 417 878 l 417 417 l 513 417 l 513 350 l 417 350 l 417 203 l 338 203 l 338 350 l 51 350 l 43 437 m 338 416 l 338 786 l 111 416 l 338 416 z "},"⁄":{"ha":491,"x_min":3,"x_max":488,"o":"m 3 1 l 417 1115 l 488 1103 l 73 -12 l 3 1 z "},"½":{"ha":1332,"x_min":42,"x_max":1264,"o":"m 42 781 q 104 820 73 797 q 203 903 148 853 l 269 890 l 269 203 l 189 203 l 189 799 q 123 753 142 765 q 63 716 96 735 l 42 781 m 375 1 l 789 1115 l 860 1103 l 445 -12 l 375 1 m 838 519 q 837 540 837 526 q 850 598 837 570 q 887 648 863 627 q 958 687 916 673 q 1052 701 1001 701 q 1147 683 1105 701 q 1217 635 1190 666 q 1259 501 1259 586 q 1243 420 1259 455 q 1200 356 1228 385 q 1154 317 1179 335 q 1090 275 1128 298 l 1072 262 q 1007 217 1033 237 q 962 176 981 197 q 907 76 923 134 l 1264 76 l 1264 1 l 821 1 q 844 111 827 64 q 889 196 861 159 q 942 253 912 228 q 1021 314 971 277 q 1027 318 1024 316 q 1035 323 1031 320 q 1092 363 1071 348 q 1129 396 1113 379 q 1162 442 1151 418 q 1173 498 1173 467 q 1167 553 1173 530 q 1149 592 1162 576 q 1109 621 1135 611 q 1049 631 1083 631 q 935 599 974 631 q 906 563 916 585 q 896 515 896 541 q 897 499 896 505 l 838 519 z "},"¼":{"ha":1257,"x_min":42,"x_max":1206,"o":"m 42 781 q 104 820 73 797 q 203 903 148 853 l 269 890 l 269 203 l 189 203 l 189 799 q 123 753 142 765 q 63 716 96 735 l 42 781 m 383 1 l 798 1115 l 868 1103 l 453 -12 l 383 1 m 736 234 l 1017 685 l 1110 675 l 1110 214 l 1206 214 l 1206 146 l 1110 146 l 1110 0 l 1031 0 l 1031 146 l 744 146 l 736 234 m 1031 212 l 1031 583 l 804 212 l 1031 212 z "},"¾":{"ha":1453,"x_min":66,"x_max":1407,"o":"m 74 765 q 99 823 80 797 q 144 867 117 849 q 293 905 201 905 q 375 893 336 905 q 442 863 414 882 q 508 719 508 816 q 462 610 508 653 q 419 582 443 593 q 374 566 396 570 q 427 548 401 561 q 474 515 454 535 q 521 401 521 469 q 503 304 521 347 q 447 235 484 262 q 273 189 382 189 q 184 201 224 189 q 109 240 138 214 q 76 287 87 259 q 66 346 65 314 l 133 371 q 141 322 133 344 q 163 287 149 300 q 210 263 182 270 q 274 256 237 256 q 393 297 360 256 q 413 338 408 313 q 418 399 418 363 q 401 473 418 446 q 351 515 384 500 q 288 530 323 527 q 199 534 252 534 l 199 600 l 259 600 q 364 625 327 600 q 409 715 409 656 q 377 810 409 783 q 341 830 363 824 q 294 837 319 837 q 231 831 258 837 q 183 810 203 825 q 156 783 168 800 q 138 745 144 766 l 74 765 m 584 1 l 998 1115 l 1069 1103 l 654 -12 l 584 1 m 937 234 l 1218 685 l 1311 675 l 1311 214 l 1407 214 l 1407 146 l 1311 146 l 1311 0 l 1232 0 l 1232 146 l 945 146 l 937 234 m 1232 212 l 1232 583 l 1004 212 l 1232 212 z "},"*":{"ha":666,"x_min":82,"x_max":585,"o":"m 585 641 l 541 559 l 366 676 l 380 475 l 290 475 l 304 676 l 126 559 l 83 635 l 283 730 l 82 817 l 126 897 l 304 781 l 290 981 l 380 981 l 366 781 l 541 897 l 585 816 l 390 730 l 585 641 z "},"\\":{"ha":458,"x_min":68,"x_max":391,"o":"m 317 -82 l 68 1003 l 140 1023 l 391 -62 l 317 -82 z "},"·":{"ha":335,"x_min":96,"x_max":239,"o":"m 96 473 l 96 623 l 239 623 l 239 473 l 96 473 z "},"•":{"ha":580,"x_min":70,"x_max":510,"o":"m 70 418 q 87 496 70 458 q 134 563 104 534 q 204 609 165 592 q 287 625 243 625 q 373 608 332 625 q 445 562 414 591 q 493 493 475 532 q 510 412 510 454 q 493 331 510 369 q 446 264 476 293 q 376 220 415 236 q 293 205 336 205 q 206 222 248 205 q 134 269 165 239 q 87 337 104 298 q 70 418 70 376 z "},":":{"ha":335,"x_min":96,"x_max":239,"o":"m 96 482 l 96 632 l 239 632 l 239 482 l 96 482 m 96 164 l 96 314 l 239 314 l 239 164 l 96 164 z "},",":{"ha":321,"x_min":96,"x_max":222,"o":"m 100 125 l 222 125 l 222 -4 q 184 -106 222 -59 q 125 -159 161 -136 l 96 -118 l 113 -98 q 148 -42 136 -71 q 154 -7 154 -26 l 100 -7 l 100 125 z "},"…":{"ha":1214,"x_min":96,"x_max":1118,"o":"m 96 0 l 96 150 l 239 150 l 239 0 l 96 0 m 535 0 l 535 150 l 678 150 l 678 0 l 535 0 m 975 0 l 975 150 l 1118 150 l 1118 0 l 975 0 z "},"!":{"ha":336,"x_min":97,"x_max":240,"o":"m 140 227 l 132 391 q 127 511 131 432 l 121 633 q 113 794 119 695 l 113 926 l 223 926 l 223 794 q 210 511 220 705 q 197 227 201 355 l 140 227 m 97 0 l 97 150 l 240 150 l 240 0 l 97 0 z "},"¡":{"ha":336,"x_min":97,"x_max":240,"o":"m 97 926 l 240 926 l 240 777 l 97 777 l 97 926 m 197 699 q 210 416 201 571 q 223 132 220 221 l 223 0 l 113 0 l 113 132 q 121 293 119 231 l 127 416 q 132 536 131 494 l 140 699 l 197 699 z "},"#":{"ha":644,"x_min":88,"x_max":559,"o":"m 100 675 l 104 764 l 224 764 l 259 957 l 353 957 l 317 764 l 397 764 l 433 957 l 527 957 l 492 764 l 559 764 l 559 675 l 477 675 l 443 473 l 547 473 l 547 384 l 429 384 l 395 195 l 300 195 l 336 384 l 254 384 l 220 195 l 125 195 l 160 384 l 88 384 l 93 473 l 175 473 l 208 675 l 100 675 m 394 675 l 296 675 l 258 473 l 357 473 l 394 675 z "},".":{"ha":335,"x_min":96,"x_max":239,"o":"m 96 0 l 96 150 l 239 150 l 239 0 l 96 0 z "},"?":{"ha":605,"x_min":46,"x_max":552,"o":"m 46 800 q 105 867 64 832 q 142 892 125 882 q 181 909 159 902 q 307 926 235 926 q 454 891 392 926 q 500 857 481 876 q 544 767 529 821 q 552 700 552 738 q 517 591 552 643 q 440 508 490 550 q 398 473 423 494 q 356 439 371 452 q 333 414 342 427 q 318 381 323 399 q 313 338 314 363 q 311 281 311 307 l 311 266 q 311 252 311 261 l 311 237 l 220 237 q 215 326 216 293 q 214 362 214 340 q 230 437 214 404 q 274 497 245 469 q 329 543 298 520 q 386 588 362 566 q 426 637 410 610 q 443 705 443 664 q 427 772 443 742 q 412 793 420 785 q 388 807 403 801 q 300 823 350 823 q 214 813 248 823 q 188 803 199 809 q 160 785 176 797 q 103 730 123 758 l 46 800 m 189 0 l 189 150 l 332 150 l 332 0 l 189 0 z "},"¿":{"ha":605,"x_min":53,"x_max":559,"o":"m 416 910 l 416 760 l 273 760 l 273 910 l 416 910 m 559 111 q 500 43 541 78 q 463 18 479 28 q 424 1 446 8 q 298 -16 370 -16 q 151 19 213 -16 q 104 54 123 35 q 61 143 76 89 q 53 210 53 173 q 87 319 53 267 q 165 402 115 360 q 207 437 182 416 q 249 471 234 458 q 272 496 263 484 q 287 529 282 511 q 292 572 291 547 q 294 629 294 603 l 294 644 q 294 659 294 649 l 294 673 l 385 673 q 390 584 389 617 q 391 548 391 570 q 375 473 391 506 q 331 413 359 441 q 276 368 307 390 q 219 322 243 345 q 179 273 195 300 q 162 205 162 246 q 178 138 162 168 q 193 117 184 125 q 217 103 202 109 q 304 87 255 87 q 391 97 357 87 q 417 107 406 101 q 445 125 429 113 q 502 180 481 153 l 559 111 z "},"\"":{"ha":538,"x_min":87,"x_max":450,"o":"m 220 985 l 218 854 l 198 646 l 111 646 l 90 854 l 87 985 l 220 985 m 450 985 l 448 854 l 427 646 l 340 646 l 319 854 l 317 985 l 450 985 z "},"'":{"ha":309,"x_min":88,"x_max":220,"o":"m 220 985 l 219 854 l 198 646 l 111 646 l 90 854 l 88 985 l 220 985 z "},";":{"ha":335,"x_min":96,"x_max":239,"o":"m 96 482 l 96 632 l 239 632 l 239 482 l 96 482 m 110 315 l 232 315 l 232 185 q 194 83 232 130 q 135 30 170 53 l 106 71 l 123 91 q 157 147 146 119 q 163 182 163 163 l 110 182 l 110 315 z "},"/":{"ha":482,"x_min":64,"x_max":418,"o":"m 64 -104 l 333 1095 l 418 1079 l 148 -120 l 64 -104 z "},"_":{"ha":736,"x_min":83,"x_max":652,"o":"m 652 -85 l 84 -85 l 83 -15 l 652 -15 l 652 -85 z "},"{":{"ha":389,"x_min":41,"x_max":341,"o":"m 142 433 q 221 361 193 401 q 231 298 227 345 l 235 219 q 237 179 235 208 q 243 58 239 106 q 258 -24 248 10 q 289 -82 269 -62 q 341 -102 309 -102 l 324 -170 q 237 -154 270 -170 q 183 -103 203 -138 q 155 -21 165 -71 q 141 106 146 28 q 140 134 140 125 q 131 249 136 200 q 117 345 126 298 q 41 394 84 378 l 41 473 q 117 522 84 489 q 131 618 126 569 q 140 732 136 667 q 141 760 140 741 q 155 888 146 838 q 183 970 165 938 q 237 1020 203 1004 q 324 1036 270 1036 l 341 968 q 289 949 309 968 q 258 891 269 929 q 243 809 248 857 q 237 688 239 761 q 235 648 235 661 l 231 570 q 221 506 227 522 q 142 433 193 466 z "},"}":{"ha":389,"x_min":48,"x_max":349,"o":"m 247 433 q 168 506 196 466 q 159 570 162 517 q 153 688 153 631 q 146 809 151 761 q 132 891 141 857 q 100 949 121 929 q 48 968 80 968 l 65 1036 q 152 1020 118 1036 q 206 970 186 1004 q 234 888 224 938 q 248 760 243 838 q 250 732 250 741 q 258 618 254 667 q 272 522 263 569 q 349 473 305 489 l 349 394 q 272 345 305 378 q 258 249 263 298 q 250 134 254 200 q 248 106 250 125 q 234 -21 243 28 q 206 -103 224 -71 q 152 -153 186 -137 q 65 -170 118 -170 l 48 -102 q 100 -82 80 -102 q 132 -24 121 -62 q 146 58 141 10 q 153 179 151 106 q 159 298 153 234 q 168 361 162 349 q 247 433 196 401 z "},"[":{"ha":421,"x_min":111,"x_max":374,"o":"m 111 -148 l 111 1030 l 374 1030 l 374 958 l 208 958 l 220 810 l 220 94 l 208 -77 l 374 -77 l 374 -148 l 111 -148 z "},"]":{"ha":420,"x_min":46,"x_max":309,"o":"m 46 958 l 46 1031 l 309 1031 l 309 -148 l 46 -148 l 46 -77 l 212 -77 l 200 101 l 200 804 l 212 958 l 46 958 z "},"(":{"ha":397,"x_min":62,"x_max":355,"o":"m 62 433 q 77 603 62 517 q 127 782 94 701 q 208 921 158 857 q 328 1044 258 986 l 355 966 q 203 682 247 842 q 173 433 173 568 q 203 184 173 296 q 355 -100 247 24 l 328 -179 q 208 -56 258 -121 q 127 83 158 9 q 77 262 94 165 q 62 433 62 349 z "},")":{"ha":396,"x_min":42,"x_max":334,"o":"m 224 431 q 193 677 224 566 q 42 958 151 833 l 68 1038 q 269 774 209 920 q 318 604 302 692 q 334 431 334 515 q 318 258 334 346 q 269 87 302 170 q 68 -176 209 -59 l 42 -97 q 193 184 151 28 q 224 431 224 296 z "},"—":{"ha":787,"x_min":83,"x_max":703,"o":"m 703 390 l 83 390 l 83 464 l 703 464 l 703 390 z "},"–":{"ha":661,"x_min":83,"x_max":578,"o":"m 578 390 l 83 390 l 83 464 l 578 464 l 578 390 z "},"-":{"ha":570,"x_min":96,"x_max":475,"o":"m 96 321 l 96 410 l 475 410 l 475 321 l 96 321 z "},"«":{"ha":746,"x_min":39,"x_max":669,"o":"m 153 489 l 372 285 l 302 224 l 39 489 l 302 754 l 372 692 l 153 489 m 450 489 l 669 285 l 600 224 l 336 489 l 600 754 l 669 692 l 450 489 z "},"»":{"ha":746,"x_min":77,"x_max":707,"o":"m 146 224 l 77 285 l 296 489 l 77 692 l 146 754 l 410 489 l 146 224 m 444 224 l 374 285 l 593 489 l 374 692 l 444 754 l 707 489 l 444 224 z "},"‹":{"ha":435,"x_min":54,"x_max":366,"o":"m 54 485 l 270 750 l 366 704 l 163 449 l 366 194 l 270 148 l 54 413 l 54 485 z "},"›":{"ha":435,"x_min":69,"x_max":380,"o":"m 165 750 l 380 485 l 380 413 l 165 148 l 69 194 l 271 449 l 69 704 l 165 750 z "},"„":{"ha":505,"x_min":94,"x_max":408,"o":"m 98 132 l 220 132 l 220 3 q 182 -100 220 -52 q 123 -153 158 -130 l 94 -111 l 111 -92 q 145 -35 134 -64 q 151 -1 151 -19 l 98 -1 l 98 132 m 286 132 l 408 132 l 408 3 q 370 -100 408 -52 q 311 -153 347 -130 l 282 -111 l 299 -92 q 334 -35 322 -64 q 340 -1 340 -19 l 286 -1 l 286 132 z "},"“":{"ha":506,"x_min":85,"x_max":418,"o":"m 85 801 q 114 916 85 865 q 165 976 135 956 l 200 941 q 186 923 199 939 q 161 875 170 904 q 155 835 155 857 l 211 835 l 211 703 l 91 703 l 85 801 m 293 803 q 322 914 293 863 q 374 976 342 949 l 408 941 q 397 925 395 924 q 371 875 380 905 q 365 834 366 857 l 418 834 l 418 703 l 298 703 l 293 803 z "},"”":{"ha":490,"x_min":83,"x_max":415,"o":"m 208 876 q 178 766 208 817 q 126 703 157 729 l 92 738 l 104 754 q 130 804 121 774 q 136 845 134 819 l 83 845 l 83 977 l 202 977 l 208 876 m 415 878 q 387 764 415 816 q 336 703 365 724 l 300 739 q 314 756 301 740 q 340 804 332 777 q 345 844 345 819 l 290 844 l 290 977 l 410 977 l 415 878 z "},"‘":{"ha":298,"x_min":86,"x_max":210,"o":"m 86 802 q 115 916 86 867 q 165 976 135 954 l 199 940 q 186 923 196 934 q 160 875 168 901 q 155 834 156 861 l 210 834 l 210 701 l 92 701 l 86 802 z "},"’":{"ha":281,"x_min":82,"x_max":206,"o":"m 206 875 q 178 762 206 812 q 127 701 157 723 l 93 737 q 106 755 95 741 q 132 802 125 774 q 138 843 136 816 l 82 843 l 82 977 l 201 977 l 206 875 z "},"‚":{"ha":317,"x_min":94,"x_max":220,"o":"m 98 132 l 220 132 l 220 3 q 182 -100 220 -52 q 123 -153 158 -130 l 94 -111 l 111 -92 q 145 -35 134 -64 q 151 -1 151 -19 l 98 -1 l 98 132 z "}," ":{"ha":367,"x_min":0,"x_max":0,"o":""},"¢":{"ha":697,"x_min":54,"x_max":641,"o":"m 347 -255 l 347 -15 q 199 16 259 -11 q 125 68 152 37 q 79 153 95 102 q 54 345 54 230 q 79 534 54 458 q 126 618 96 583 q 199 669 151 647 q 347 701 263 698 l 347 892 l 407 901 l 407 701 q 528 673 477 696 q 558 656 547 665 q 583 636 570 648 q 613 593 601 618 q 637 501 631 557 l 551 477 q 535 546 544 524 q 519 574 528 564 q 407 616 486 609 l 407 66 q 526 110 493 73 q 542 138 535 119 q 559 206 552 163 l 641 182 q 618 92 634 124 q 587 50 607 69 q 531 14 568 30 q 407 -14 477 -10 l 407 -247 l 347 -255 m 203 119 q 247 85 220 98 q 347 66 284 68 l 347 616 q 244 597 283 614 q 200 564 216 584 q 174 503 182 541 q 160 344 160 448 q 174 180 160 239 q 203 119 184 140 z "},"¤":{"ha":842,"x_min":102,"x_max":741,"o":"m 421 825 q 581 785 519 825 l 634 839 l 666 871 l 741 798 l 655 710 q 684 628 675 672 q 694 538 694 584 q 663 385 694 454 l 741 306 l 666 233 l 598 301 q 421 254 536 254 q 244 301 307 254 l 176 233 l 102 306 l 179 385 q 149 538 149 454 q 158 628 149 584 q 187 710 168 672 l 102 798 l 176 871 l 208 839 l 236 810 l 261 785 q 421 825 323 825 m 421 339 q 514 355 480 339 q 567 404 548 371 q 590 473 585 433 q 594 538 594 502 q 594 565 594 541 q 590 614 594 589 q 556 692 581 661 q 503 728 536 716 q 421 741 471 741 q 339 728 372 741 q 286 692 307 716 q 253 614 261 661 q 248 551 248 588 q 252 473 248 503 q 275 404 258 433 q 328 355 294 371 q 421 339 362 339 z "},"$":{"ha":738,"x_min":71,"x_max":680,"o":"m 291 -106 l 301 5 q 174 45 235 16 q 128 70 146 59 q 106 83 109 81 l 106 182 q 132 165 116 174 q 239 115 174 138 q 310 96 271 103 l 342 439 l 235 476 q 111 558 149 510 q 80 617 90 584 q 71 694 71 650 q 146 876 71 819 q 353 928 215 928 q 389 926 366 928 l 400 1042 l 472 1042 l 460 917 q 568 885 511 907 l 581 879 q 603 869 600 871 l 623 860 l 623 764 q 565 793 606 776 q 452 827 508 816 l 420 505 l 500 478 q 583 443 550 461 q 637 400 616 425 q 669 336 659 374 q 680 246 680 299 q 609 66 680 127 q 373 -1 532 -1 l 363 -106 l 291 -106 m 349 838 q 270 831 302 838 q 215 810 237 825 q 181 767 192 793 q 170 699 170 740 q 176 642 170 665 q 199 604 183 620 q 237 575 214 588 q 301 547 261 563 l 351 529 l 380 837 q 349 838 359 838 m 579 245 q 571 310 579 284 q 545 353 563 336 q 502 382 528 370 q 433 408 475 395 l 412 415 l 381 90 q 536 134 487 90 q 579 245 579 171 z "},"€":{"ha":966,"x_min":58,"x_max":895,"o":"m 239 520 l 239 484 l 239 454 q 240 425 239 442 l 555 425 l 555 349 l 247 349 q 278 222 257 274 q 313 159 296 177 q 399 100 340 124 q 541 75 462 75 q 675 92 618 75 q 740 122 718 105 q 770 153 753 130 q 806 228 793 182 l 895 188 q 848 84 879 126 q 800 37 828 57 q 773 22 793 33 q 644 -18 726 -3 q 541 -26 599 -26 q 338 14 428 -26 q 237 80 277 40 q 169 187 199 118 q 125 349 139 256 l 58 349 l 58 425 l 118 425 q 117 449 117 441 l 117 474 l 117 497 q 117 520 117 513 l 58 520 l 58 594 l 123 594 q 169 778 134 697 q 227 874 193 835 q 271 916 243 895 q 335 955 298 937 q 541 998 427 998 q 730 968 646 998 q 783 942 765 954 q 810 924 802 930 q 831 903 818 917 q 874 835 855 877 q 891 783 884 813 l 799 746 q 765 820 786 791 q 721 861 744 849 l 703 869 q 615 892 671 883 q 543 897 586 897 q 399 869 460 897 q 327 821 355 850 q 279 745 300 797 q 244 594 252 676 l 555 594 l 555 520 l 239 520 z "},"ƒ":{"ha":547,"x_min":-153,"x_max":583,"o":"m 190 -85 q 161 -201 176 -159 q 120 -271 146 -244 q 46 -311 92 -299 q -71 -323 1 -323 q -153 -313 -113 -323 l -138 -224 q -58 -233 -92 -233 q 6 -224 -18 -233 q 45 -198 31 -216 q 64 -159 58 -182 q 79 -94 71 -135 l 198 583 l 55 583 l 71 673 l 214 673 l 239 817 q 268 930 252 886 q 311 999 284 973 q 384 1038 339 1026 q 498 1050 428 1050 q 583 1047 545 1050 l 568 956 q 487 960 515 960 q 421 952 445 960 q 383 928 397 945 q 365 891 371 913 q 351 827 358 869 l 324 673 l 517 673 l 500 583 l 309 583 l 190 -85 z "},"£":{"ha":766,"x_min":63,"x_max":703,"o":"m 183 481 l 189 631 q 210 766 193 711 q 260 854 227 821 q 337 901 291 886 q 448 916 384 916 q 545 906 505 916 q 611 876 584 897 q 654 822 637 855 q 682 741 671 789 l 609 692 q 593 753 602 728 q 570 795 584 779 q 534 821 555 812 q 482 829 513 829 q 386 823 420 829 q 332 796 352 816 q 303 740 312 777 q 290 637 294 703 l 282 481 l 500 481 l 489 401 l 275 401 l 271 281 q 266 214 269 239 q 259 166 264 188 q 222 85 248 115 l 223 83 q 307 99 260 99 q 347 96 328 99 q 399 86 366 93 q 451 76 432 79 q 490 73 471 73 q 675 134 589 73 l 703 43 q 607 0 652 16 q 515 -16 562 -16 q 464 -11 489 -16 q 395 3 439 -7 l 380 5 q 321 17 345 13 q 273 20 296 20 q 208 15 245 20 q 84 -6 179 11 l 63 65 q 154 144 127 83 q 169 201 165 170 q 174 272 174 232 l 177 401 l 73 401 l 73 481 l 183 481 z "},"¥":{"ha":820,"x_min":41,"x_max":779,"o":"m 658 302 l 458 302 l 458 0 l 361 0 l 361 302 l 161 302 l 161 378 l 361 378 l 361 407 l 333 452 l 161 452 l 161 526 l 288 526 l 41 962 l 149 962 l 365 572 l 408 492 l 414 492 l 455 572 l 669 962 l 779 962 l 530 526 l 658 526 l 658 452 l 485 452 l 458 407 l 458 378 l 658 378 l 658 302 z "},"+":{"ha":639,"x_min":74,"x_max":566,"o":"m 566 381 l 372 381 l 372 192 l 272 192 l 272 381 l 74 381 l 74 464 l 272 464 l 272 652 l 372 652 l 372 464 l 566 464 l 566 381 z "},"−":{"ha":719,"x_min":104,"x_max":614,"o":"m 614 389 l 104 389 l 104 463 l 614 463 l 614 389 z "},"×":{"ha":605,"x_min":97,"x_max":508,"o":"m 508 562 l 372 427 l 508 290 l 438 222 l 302 358 l 166 222 l 97 290 l 233 427 l 97 562 l 166 631 l 302 494 l 438 631 l 508 562 z "},"÷":{"ha":682,"x_min":87,"x_max":597,"o":"m 271 510 l 271 660 l 414 660 l 414 510 l 271 510 m 597 389 l 87 389 l 87 463 l 597 463 l 597 389 m 271 192 l 271 342 l 414 342 l 414 192 l 271 192 z "},"=":{"ha":705,"x_min":104,"x_max":601,"o":"m 601 473 l 104 473 l 104 547 l 601 547 l 601 473 m 601 302 l 104 302 l 104 378 l 601 378 l 601 302 z "},"≠":{"ha":972,"x_min":96,"x_max":876,"o":"m 680 770 l 601 604 l 876 604 l 876 536 l 572 536 l 455 294 l 876 294 l 876 225 l 425 225 l 330 28 l 275 56 l 355 225 l 96 225 l 96 294 l 387 294 l 501 536 l 96 536 l 96 604 l 532 604 l 623 798 l 680 770 z "},">":{"ha":728,"x_min":72,"x_max":684,"o":"m 684 425 l 684 380 l 126 40 l 72 104 l 566 401 l 72 700 l 126 764 l 684 425 z "},"<":{"ha":727,"x_min":43,"x_max":656,"o":"m 161 401 l 656 104 l 602 40 l 43 380 l 43 425 l 602 764 l 654 700 l 161 401 z "},"≥":{"ha":939,"x_min":85,"x_max":861,"o":"m 94 909 l 860 553 l 860 479 l 94 123 l 94 204 l 779 515 l 779 518 l 94 828 l 94 909 m 861 -9 l 85 -9 l 85 58 l 861 58 l 861 -9 z "},"≤":{"ha":942,"x_min":74,"x_max":853,"o":"m 849 123 l 85 481 l 85 553 l 849 909 l 849 828 l 163 519 l 163 517 l 849 204 l 849 123 m 853 -9 l 74 -9 l 74 58 l 853 58 l 853 -9 z "},"±":{"ha":868,"x_min":98,"x_max":770,"o":"m 382 729 l 487 729 l 487 518 l 770 518 l 770 414 l 487 414 l 487 203 l 382 203 l 382 414 l 98 414 l 98 518 l 382 518 l 382 729 m 98 14 l 98 118 l 770 118 l 770 14 l 98 14 z "},"≈":{"ha":985,"x_min":100,"x_max":888,"o":"m 888 534 q 801 429 846 463 q 673 387 744 387 q 585 403 627 387 q 492 446 550 416 l 492 446 q 450 467 475 453 q 366 502 404 491 q 318 508 343 508 q 222 471 266 508 q 186 436 203 456 q 150 388 170 416 l 100 432 q 200 543 140 503 q 330 582 259 582 q 433 557 377 582 q 481 534 465 543 q 532 507 503 522 q 566 490 543 501 q 635 465 600 472 q 675 460 653 460 q 764 489 726 460 q 839 578 800 515 l 888 534 m 888 308 q 801 203 846 237 q 673 161 745 161 q 577 180 626 161 q 474 230 538 195 q 391 268 427 254 q 318 281 355 281 q 221 245 265 281 q 186 211 203 231 q 150 163 170 191 l 100 205 q 199 316 140 277 q 328 355 258 355 q 423 334 369 355 q 538 277 467 316 q 571 260 554 269 q 603 248 588 252 q 677 235 637 235 q 765 264 727 235 q 839 353 800 289 l 888 308 z "},"~":{"ha":774,"x_min":79,"x_max":699,"o":"m 79 371 q 127 479 95 439 q 243 536 174 536 q 351 506 286 536 q 403 478 386 488 q 496 428 465 441 q 534 419 516 419 q 592 445 570 419 q 605 466 600 454 q 616 490 611 477 q 623 507 621 503 l 699 469 q 682 415 694 441 q 650 367 669 389 q 530 316 604 316 q 427 345 489 316 q 374 372 397 357 q 281 418 312 406 q 247 427 261 427 q 191 401 215 427 q 154 335 172 380 l 79 371 z "},"¬":{"ha":941,"x_min":104,"x_max":833,"o":"m 833 0 l 712 0 l 712 361 l 104 361 l 104 429 l 833 429 l 833 0 z "},"∞":{"ha":1273,"x_min":92,"x_max":1180,"o":"m 1180 421 q 1160 319 1180 366 q 1105 239 1141 273 q 1027 189 1071 206 q 937 171 983 171 q 863 183 899 171 q 791 222 828 196 q 722 279 758 245 q 638 366 685 314 q 565 287 595 317 q 502 233 535 257 q 330 171 418 171 q 239 190 282 171 q 163 242 196 208 q 111 321 130 276 q 92 416 92 366 q 111 515 92 469 q 164 595 130 562 q 244 648 198 629 q 342 667 290 667 q 507 606 425 667 q 571 549 540 582 q 644 471 603 517 l 653 481 q 721 554 693 526 q 779 605 748 582 q 858 651 817 635 q 947 667 899 667 q 1043 648 1000 666 q 1117 598 1086 631 q 1164 520 1147 566 q 1180 422 1180 475 l 1180 421 m 342 239 q 486 300 410 239 q 546 357 519 328 q 599 414 576 391 l 587 429 q 530 495 553 470 q 482 541 508 519 q 330 602 408 602 q 262 587 292 602 q 209 545 231 572 q 176 485 187 519 q 165 414 165 451 q 178 346 165 378 q 213 290 190 314 q 269 252 237 266 q 341 239 302 239 l 342 239 m 939 602 q 835 568 888 602 q 748 494 795 543 q 711 454 724 468 q 680 421 700 441 q 758 339 725 372 q 821 286 791 307 q 881 250 852 262 q 942 239 910 239 q 1011 254 980 239 q 1065 296 1042 269 q 1097 352 1086 321 q 1107 416 1107 383 q 1095 493 1107 458 q 1059 553 1082 528 q 1006 589 1037 576 q 941 602 976 602 l 939 602 z "},"∫":{"ha":528,"x_min":-4,"x_max":531,"o":"m 511 1149 q 483 1161 501 1156 q 448 1166 465 1166 q 364 1134 395 1166 q 318 1035 332 1101 q 304 869 304 968 q 316 504 304 743 q 324 294 321 377 q 327 134 327 212 q 304 -55 327 24 q 256 -160 288 -114 q 190 -214 230 -195 q 104 -232 151 -232 q 42 -223 74 -232 q -4 -205 14 -216 l 16 -134 q 51 -148 31 -141 q 95 -154 72 -154 q 190 -101 155 -154 q 234 136 234 -32 q 224 473 234 256 q 222 511 224 486 q 213 722 216 639 q 210 880 210 804 q 231 1071 210 1000 q 298 1187 251 1145 q 441 1242 352 1242 q 492 1234 467 1242 q 531 1218 521 1225 l 511 1149 z "},"∆":{"ha":1086,"x_min":42,"x_max":1044,"o":"m 42 0 l 42 75 l 482 975 l 608 975 l 1044 75 l 1044 0 l 42 0 m 164 83 l 914 83 l 663 627 l 543 874 l 536 874 l 431 656 l 164 83 z "},"∏":{"ha":1042,"x_min":43,"x_max":999,"o":"m 999 885 l 805 885 l 805 1 l 701 1 l 701 885 l 344 885 l 344 1 l 238 1 l 238 885 l 43 885 l 43 977 l 999 977 l 999 885 z "},"∑":{"ha":769,"x_min":50,"x_max":710,"o":"m 710 0 l 50 0 l 50 65 l 432 536 l 72 907 l 72 977 l 686 977 l 686 887 l 227 887 l 227 882 l 559 540 l 198 100 l 198 94 l 710 94 l 710 0 z "},"√":{"ha":801,"x_min":19,"x_max":774,"o":"m 774 976 l 514 -16 l 416 -16 l 169 603 l 43 555 l 19 616 l 233 701 l 416 229 l 464 78 l 498 229 l 691 976 l 774 976 z "},"µ":{"ha":789,"x_min":115,"x_max":692,"o":"m 115 686 l 220 686 l 220 273 q 229 161 220 201 q 238 136 233 144 q 245 122 240 132 q 283 87 256 99 q 385 69 319 69 q 499 86 456 69 q 546 117 530 98 q 574 165 564 135 q 588 286 588 210 l 588 686 l 692 686 l 692 0 l 605 0 l 596 99 q 570 64 584 81 q 532 31 556 47 q 357 -18 462 -18 q 220 20 281 -18 l 220 -126 l 115 -144 l 115 686 z "},"%":{"ha":1034,"x_min":48,"x_max":983,"o":"m 240 944 q 382 882 331 944 q 418 811 406 852 q 430 721 430 770 q 382 560 430 620 q 241 497 331 497 q 97 559 149 497 q 60 629 73 589 q 48 720 48 670 q 60 810 48 769 q 97 881 73 851 q 157 928 121 911 q 240 944 193 944 m 278 -19 l 669 943 l 741 915 l 351 -47 l 278 -19 m 240 875 q 159 826 186 875 q 138 725 138 787 q 159 616 138 656 q 240 566 184 566 q 319 616 294 566 q 340 720 340 654 q 320 826 340 787 q 240 875 295 875 m 794 473 q 935 410 884 473 q 983 248 983 348 q 971 160 983 201 q 935 90 959 119 q 794 26 882 26 q 650 89 700 26 q 602 251 602 149 q 614 341 602 300 q 651 411 627 382 q 712 457 675 441 q 794 473 748 473 m 793 404 q 712 356 739 404 q 691 256 691 319 q 711 146 691 185 q 793 96 737 96 q 873 146 847 96 q 894 249 894 184 q 873 354 894 315 q 793 404 847 404 z "},"‰":{"ha":1495,"x_min":48,"x_max":1447,"o":"m 240 944 q 382 882 331 944 q 418 811 406 852 q 430 721 430 770 q 382 560 430 620 q 241 497 331 497 q 97 559 149 497 q 60 629 73 589 q 48 720 48 670 q 60 810 48 769 q 97 881 73 851 q 157 928 121 911 q 240 944 193 944 m 278 -19 l 669 943 l 741 915 l 351 -47 l 278 -19 m 240 875 q 159 826 186 875 q 138 725 138 787 q 159 616 138 656 q 240 566 184 566 q 319 616 294 566 q 340 720 340 654 q 320 826 340 787 q 240 875 295 875 m 794 473 q 935 410 884 473 q 983 248 983 348 q 971 160 983 201 q 935 90 959 119 q 794 26 882 26 q 650 89 700 26 q 602 251 602 149 q 614 341 602 300 q 651 411 627 382 q 712 457 675 441 q 794 473 748 473 m 1257 473 q 1398 410 1347 473 q 1447 248 1447 348 q 1434 160 1447 201 q 1398 90 1422 119 q 1257 26 1345 26 q 1114 89 1163 26 q 1065 251 1065 149 q 1078 341 1065 300 q 1114 411 1090 382 q 1175 457 1139 441 q 1257 473 1211 473 m 793 404 q 712 356 739 404 q 691 256 691 319 q 711 146 691 185 q 793 96 737 96 q 873 146 847 96 q 894 249 894 184 q 873 354 894 315 q 793 404 847 404 m 1257 404 q 1175 356 1202 404 q 1154 256 1154 319 q 1175 146 1154 185 q 1256 96 1200 96 q 1337 146 1310 96 q 1357 249 1357 184 q 1337 354 1357 315 q 1257 404 1310 404 z "},"◊":{"ha":847,"x_min":41,"x_max":806,"o":"m 380 -77 l 41 509 l 381 1095 l 466 1095 l 806 509 l 467 -77 l 380 -77 m 425 1011 l 387 943 l 138 511 l 392 71 l 424 9 l 455 71 l 709 511 l 460 943 l 425 1011 z "},"@":{"ha":1189,"x_min":58,"x_max":1135,"o":"m 818 334 q 815 302 815 321 q 824 246 815 271 q 849 210 832 223 q 890 196 865 196 q 952 221 924 196 q 1000 290 981 247 q 1029 381 1019 331 q 1039 478 1039 431 q 1006 632 1039 564 q 913 749 972 701 q 785 817 857 793 q 633 840 712 840 q 514 825 573 840 q 402 781 456 810 q 303 710 349 752 q 227 618 258 669 q 175 503 193 565 q 157 373 157 441 q 182 216 157 288 q 258 91 207 144 q 580 -27 369 -27 q 692 -15 637 -27 q 804 18 747 -3 l 842 -65 q 566 -121 703 -121 q 446 -109 506 -121 q 330 -72 385 -96 q 222 -6 271 -46 q 138 85 174 33 q 58 363 58 202 q 80 524 58 448 q 144 665 102 600 q 238 778 184 728 q 359 864 293 829 q 495 917 424 899 q 640 935 567 935 q 762 923 701 935 q 878 886 823 910 q 1061 736 995 833 q 1135 488 1135 630 q 1116 345 1135 414 q 1061 223 1096 276 q 978 139 1025 170 q 876 109 930 109 q 821 120 847 109 q 774 152 794 131 q 730 286 730 200 q 653 153 701 200 q 528 104 602 104 q 438 123 477 104 q 371 178 398 142 q 331 261 345 213 q 317 368 317 310 q 339 494 317 434 q 400 600 361 554 q 494 672 440 646 q 611 697 549 697 q 701 680 659 697 q 776 632 743 663 q 797 666 787 656 q 820 675 808 675 q 854 673 840 675 l 872 671 l 818 334 m 553 191 q 658 255 612 191 q 716 401 694 308 l 728 454 l 740 513 l 754 582 l 741 586 q 664 604 701 597 q 622 608 641 608 q 475 527 524 608 q 443 443 453 491 q 432 342 432 395 q 440 285 432 313 q 464 237 449 258 q 502 203 479 215 q 553 191 525 191 z "},"&":{"ha":983,"x_min":60,"x_max":964,"o":"m 633 762 q 593 851 612 816 q 569 882 582 871 q 528 897 555 892 q 459 903 494 903 q 385 895 416 903 q 318 821 334 880 q 312 763 312 798 q 327 689 312 726 q 376 618 342 652 l 713 291 q 726 375 723 337 l 732 443 l 822 422 q 811 317 817 361 q 793 224 802 254 l 964 77 l 907 2 q 885 23 890 18 l 841 61 l 825 75 l 760 127 q 709 45 748 82 q 673 19 692 28 q 619 3 653 10 q 420 -14 543 -14 q 245 0 311 -14 q 120 62 162 18 q 74 150 88 96 q 60 282 60 204 q 77 405 60 354 q 125 490 94 455 q 189 542 153 521 q 278 587 225 564 q 215 674 233 637 q 195 767 195 713 q 452 998 195 998 q 571 988 525 998 q 647 952 618 979 q 700 866 671 933 q 723 803 710 841 l 633 762 m 330 519 q 258 485 286 503 q 214 444 230 467 q 190 384 197 419 q 183 297 183 349 q 190 190 183 229 q 220 127 197 150 q 299 92 245 102 q 427 84 345 84 q 583 93 528 84 q 624 102 608 97 q 669 151 650 119 q 682 193 678 170 l 330 519 z "},"¶":{"ha":791,"x_min":45,"x_max":726,"o":"m 281 -159 l 281 522 q 185 544 229 526 q 111 591 142 562 q 45 748 45 653 q 64 841 45 799 q 119 913 83 883 q 202 960 154 944 q 308 977 250 977 l 726 977 l 726 888 l 636 888 l 636 -159 l 521 -159 l 521 888 l 396 888 l 396 -159 l 281 -159 z "},"§":{"ha":689,"x_min":81,"x_max":621,"o":"m 334 -138 q 230 -134 271 -138 q 160 -118 189 -130 q 110 -80 129 -105 q 83 -13 92 -55 l 144 28 q 164 -17 153 0 q 197 -44 176 -35 q 251 -59 217 -54 q 336 -64 284 -64 q 401 -60 376 -64 q 444 -45 427 -57 q 472 -9 463 -33 q 481 56 481 15 q 476 99 481 81 q 458 130 470 117 q 431 152 447 141 q 389 176 415 162 l 205 271 q 137 316 162 296 q 100 357 112 336 q 84 396 88 376 q 81 450 81 417 q 118 564 81 519 q 223 628 156 609 q 134 713 160 663 q 111 807 111 753 q 181 962 111 914 q 357 1005 242 1005 q 453 1000 415 1005 q 517 983 492 995 q 561 949 544 970 q 587 892 577 927 l 520 852 q 500 892 512 876 q 471 916 489 907 q 426 927 453 924 q 360 931 399 931 q 284 924 314 931 q 237 901 254 916 q 213 865 220 887 q 205 812 205 843 q 233 738 205 770 q 313 676 261 705 l 520 558 q 597 488 574 526 q 621 387 621 448 q 495 229 621 283 q 564 155 544 199 q 578 66 578 121 q 564 -33 578 7 q 519 -96 549 -72 q 444 -129 490 -119 q 334 -138 399 -138 m 524 374 q 488 462 524 427 q 454 488 473 477 q 417 510 425 505 l 268 594 q 203 551 227 582 q 177 460 177 515 q 207 384 177 412 q 231 366 218 373 q 268 346 244 358 l 435 264 q 511 322 482 280 q 524 374 524 344 z "},"©":{"ha":989,"x_min":64,"x_max":925,"o":"m 925 433 q 910 319 925 374 q 866 214 895 263 q 711 59 808 115 q 493 0 610 0 q 328 33 406 0 q 190 126 250 66 q 97 264 130 186 q 64 429 64 342 q 97 597 64 518 q 190 735 130 675 q 328 828 250 795 q 493 861 406 861 q 711 802 610 861 q 866 649 808 746 q 910 546 895 601 q 925 433 925 491 m 846 429 q 819 571 846 504 q 743 689 792 638 q 630 768 695 740 q 493 795 566 795 q 357 768 421 795 q 244 689 293 740 q 168 571 195 638 q 140 429 140 504 q 168 289 140 355 q 244 172 195 223 q 357 93 293 121 q 493 64 422 64 q 630 93 565 64 q 743 172 694 121 q 819 289 792 223 q 846 429 846 355 m 652 583 q 578 627 617 612 q 502 642 540 642 q 429 628 463 642 q 369 585 395 613 q 327 516 342 557 q 312 424 312 475 q 327 334 312 374 q 369 264 342 294 q 431 221 395 236 q 506 205 466 205 q 592 224 549 205 q 677 279 636 242 l 711 240 q 614 166 668 191 q 503 142 560 142 q 400 162 450 142 q 312 220 351 182 q 250 312 272 259 q 227 429 227 366 q 250 544 227 492 q 312 632 272 595 q 399 686 350 667 q 499 705 448 705 q 604 685 553 705 q 694 625 654 665 l 652 583 z "},"®":{"ha":944,"x_min":71,"x_max":874,"o":"m 874 553 q 843 399 874 471 q 756 272 812 327 q 627 186 701 217 q 471 156 553 156 q 316 186 389 156 q 187 271 243 217 q 101 398 132 326 q 71 550 71 470 q 101 704 71 631 q 187 831 132 777 q 316 916 243 885 q 471 946 389 946 q 626 916 553 946 q 756 831 700 886 q 843 705 812 777 q 874 553 874 633 m 782 550 q 758 675 782 616 q 691 780 734 734 q 591 850 648 825 q 471 875 534 875 q 350 850 407 875 q 251 780 294 825 q 183 675 208 734 q 159 550 159 616 q 183 426 159 485 q 251 321 208 367 q 350 252 294 277 q 471 227 407 227 q 591 251 534 227 q 691 321 648 276 q 758 425 734 366 q 782 550 782 484 m 640 644 q 604 561 640 595 q 565 537 588 546 q 518 526 543 528 l 636 330 l 583 298 l 457 520 l 391 520 l 391 313 l 330 313 l 330 770 l 464 770 q 541 765 509 770 q 594 745 572 759 q 629 706 617 730 q 640 644 640 682 m 580 644 q 573 686 580 670 q 553 710 567 701 q 519 721 541 718 q 464 724 498 724 l 391 724 l 391 572 l 464 572 q 553 587 530 572 q 580 644 580 602 z "},"™":{"ha":862,"x_min":89,"x_max":747,"o":"m 361 900 l 250 900 l 250 525 l 200 525 l 200 900 l 89 900 l 89 946 l 361 946 l 361 900 m 747 525 l 696 525 l 696 794 l 603 532 l 549 532 l 456 794 l 456 525 l 404 525 l 404 946 l 452 946 l 576 604 l 699 946 l 747 946 l 747 525 z "},"°":{"ha":430,"x_min":69,"x_max":361,"o":"m 216 686 q 106 730 146 686 q 78 774 87 749 q 69 827 69 800 q 78 879 69 854 q 106 924 87 904 q 216 968 146 968 q 325 924 284 968 q 352 879 342 904 q 361 827 361 854 q 352 774 361 800 q 325 730 342 749 q 216 686 284 686 m 216 901 q 163 878 182 901 q 146 827 146 857 q 163 776 146 797 q 216 752 182 752 q 267 776 248 752 q 284 827 284 797 q 267 878 284 856 q 216 901 248 901 z "},"|":{"ha":339,"x_min":110,"x_max":229,"o":"m 110 -204 l 110 1042 l 229 1042 l 229 -204 l 110 -204 z "},"¦":{"ha":370,"x_min":114,"x_max":256,"o":"m 256 519 l 114 519 l 114 1038 l 256 1038 l 256 519 m 256 -110 l 114 -110 l 114 407 l 256 407 l 256 -110 z "},"†":{"ha":603,"x_min":48,"x_max":555,"o":"m 247 676 l 247 968 l 360 968 l 360 676 l 555 676 l 555 592 l 360 592 l 360 -157 l 247 -157 l 247 592 l 48 592 l 48 676 l 247 676 z "},"‡":{"ha":650,"x_min":73,"x_max":577,"o":"m 271 688 l 271 969 l 377 969 l 377 688 l 577 688 l 577 603 l 377 603 l 377 208 l 577 208 l 577 125 l 377 125 l 377 -160 l 271 -160 l 271 125 l 73 125 l 73 208 l 271 208 l 271 603 l 73 603 l 73 688 l 271 688 z "},"^":{"ha":778,"x_min":69,"x_max":708,"o":"m 69 404 l 335 985 l 443 985 l 708 404 l 576 395 l 447 693 l 389 831 l 332 692 l 199 390 l 69 404 z "},"̏":{"ha":0,"x_min":-574,"x_max":-104,"o":"m -574 971 l -512 1040 l -323 863 l -366 810 l -574 971 m -355 971 l -292 1040 l -104 863 l -146 810 l -355 971 z "},"̑":{"ha":0,"x_min":-572,"x_max":-104,"o":"m -572 812 q -547 895 -567 856 q -494 962 -526 933 q -422 1007 -463 991 q -338 1023 -382 1023 q -254 1007 -294 1023 q -181 962 -213 991 q -129 895 -149 933 q -104 812 -109 856 l -179 812 q -235 907 -191 869 q -283 934 -256 924 q -338 944 -310 944 q -393 934 -367 944 q -441 907 -420 924 q -478 864 -463 888 q -498 812 -493 840 l -572 812 z "},"̦":{"ha":0,"x_min":-225,"x_max":-99,"o":"m -221 125 l -99 125 l -99 -4 q -137 -106 -99 -59 q -196 -159 -161 -136 l -225 -118 l -208 -98 q -174 -42 -185 -71 q -168 -7 -168 -26 l -221 -7 l -221 125 z "},"´":{"ha":574,"x_min":127,"x_max":406,"o":"m 191 800 l 127 822 l 289 1078 l 406 1028 l 191 800 z "},"˘":{"ha":676,"x_min":104,"x_max":572,"o":"m 178 1023 q 198 971 183 996 q 235 929 213 947 q 283 902 256 911 q 338 892 309 892 q 393 902 366 892 q 441 929 420 911 q 497 1023 486 966 l 572 1023 q 547 941 568 980 q 495 873 527 903 q 422 828 463 844 q 338 812 382 812 q 254 828 294 812 q 182 873 214 844 q 130 941 150 903 q 104 1023 109 980 l 178 1023 z "},"ˇ":{"ha":478,"x_min":52,"x_max":391,"o":"m 223 810 l 293 998 l 391 998 l 270 770 l 172 770 l 52 998 l 150 998 l 223 810 z "},"¸":{"ha":382,"x_min":71,"x_max":311,"o":"m 311 -160 q 303 -202 311 -182 q 280 -237 295 -222 q 197 -267 249 -267 q 114 -253 146 -267 q 71 -222 93 -244 l 91 -182 q 131 -204 109 -197 q 184 -210 153 -210 q 226 -199 215 -210 q 237 -168 237 -188 q 227 -135 237 -144 q 193 -125 216 -125 l 158 -125 l 124 -83 l 147 -1 l 214 -1 l 189 -81 q 269 -94 239 -81 q 311 -160 311 -113 z "},"ˆ":{"ha":478,"x_min":52,"x_max":391,"o":"m 391 770 l 293 770 l 223 958 l 150 770 l 52 770 l 172 998 l 270 998 l 391 770 z "},"¨":{"ha":467,"x_min":30,"x_max":439,"o":"m 92 977 q 144 960 131 977 q 156 909 156 945 q 143 860 156 875 q 92 845 130 845 q 44 861 58 845 q 30 909 30 876 q 43 960 30 944 q 92 977 57 977 m 376 977 q 428 960 414 977 q 439 909 439 945 q 426 860 439 875 q 376 845 413 845 q 328 861 342 845 q 313 909 313 876 q 327 960 313 944 q 376 977 340 977 z "},"˙":{"ha":328,"x_min":101,"x_max":227,"o":"m 163 929 q 216 912 202 929 q 227 862 227 897 q 222 827 227 840 q 203 809 216 814 q 163 804 189 804 q 115 817 129 804 q 101 862 101 829 q 115 913 101 897 q 163 929 128 929 z "},"`":{"ha":574,"x_min":83,"x_max":364,"o":"m 201 1078 l 364 822 l 301 800 l 83 1028 l 201 1078 z "},"˝":{"ha":679,"x_min":104,"x_max":575,"o":"m 293 1040 l 355 971 l 147 810 l 104 863 l 293 1040 m 513 1040 l 575 971 l 367 810 l 323 863 l 513 1040 z "},"¯":{"ha":654,"x_min":118,"x_max":538,"o":"m 118 928 l 538 928 l 538 822 l 118 822 l 118 928 z "},"˛":{"ha":456,"x_min":98,"x_max":327,"o":"m 327 -158 q 261 -215 299 -195 q 184 -235 223 -235 q 123 -215 146 -235 q 98 -155 98 -195 q 121 -77 98 -121 q 178 0 144 -33 l 231 0 q 178 -121 178 -77 q 221 -159 178 -159 q 309 -127 261 -159 l 327 -158 z "},"˚":{"ha":475,"x_min":85,"x_max":304,"o":"m 85 892 q 116 969 85 939 q 195 998 146 998 q 238 990 218 998 q 273 968 258 982 q 304 891 304 938 q 273 814 304 843 q 194 784 241 784 q 116 814 147 784 q 85 892 85 844 m 138 892 q 153 850 138 865 q 195 834 167 834 q 237 850 222 834 q 252 891 252 865 q 237 933 252 917 q 195 949 222 949 q 153 933 168 949 q 138 892 138 918 z "},"˜":{"ha":690,"x_min":113,"x_max":486,"o":"m 113 852 q 149 951 113 921 q 225 977 177 977 q 263 970 243 977 q 311 949 283 962 q 324 942 318 945 q 335 937 330 939 l 349 929 q 374 920 367 920 q 401 934 393 920 q 410 977 409 948 l 486 977 q 454 878 486 911 q 379 851 427 851 q 338 858 357 851 q 296 878 318 864 q 251 904 263 898 q 227 911 238 911 q 190 852 190 911 l 113 852 z "}}}
